<?xml version="1.0" encoding="UTF-8"?>
<svg xmlns="http://www.w3.org/2000/svg" xmlns:xlink="http://www.w3.org/1999/xlink" viewBox="0 0 709.14 379.44">
  <defs>
    <style>
      .cls-1, .cls-2, .cls-3, .cls-4, .cls-5, .cls-6, .cls-7, .cls-8, .cls-9 {
        mix-blend-mode: multiply;
      }

      .cls-1, .cls-5 {
        opacity: .4;
      }

      .cls-2, .cls-10, .cls-5 {
        fill: #6063c1;
      }

      .cls-11 {
        fill: #fff;
      }

      .cls-3 {
        opacity: .6;
      }

      .cls-3, .cls-4, .cls-12 {
        fill: #b36d5e;
      }

      .cls-13 {
        stroke-width: .86px;
      }

      .cls-13, .cls-14, .cls-15, .cls-16, .cls-17, .cls-18 {
        stroke: #383b3f;
      }

      .cls-13, .cls-14, .cls-15, .cls-16, .cls-17, .cls-18, .cls-19 {
        fill: none;
      }

      .cls-13, .cls-14, .cls-15, .cls-18 {
        stroke-linecap: round;
        stroke-linejoin: round;
      }

      .cls-20 {
        fill: #ea7140;
      }

      .cls-21 {
        isolation: isolate;
      }

      .cls-22, .cls-8 {
        fill: #e99a7a;
      }

      .cls-15 {
        stroke-width: .82px;
      }

      .cls-23 {
        fill: #457a74;
      }

      .cls-16, .cls-17 {
        stroke-miterlimit: 10;
      }

      .cls-4, .cls-24 {
        opacity: .8;
      }

      .cls-25 {
        fill: #eec75c;
      }

      .cls-26 {
        fill: #383b3f;
      }

      .cls-17 {
        stroke-width: .72px;
      }

      .cls-6 {
        opacity: .3;
      }

      .cls-7 {
        opacity: .5;
      }

      .cls-18 {
        stroke-width: .85px;
      }

      .cls-27 {
        clip-path: url(#clippath);
      }

      .cls-28 {
        fill: #f3eacb;
      }

      .cls-29 {
        fill: #64ac7e;
      }
    </style>
    <clipPath id="clippath">
      <rect class="cls-19" x="628.45" y="104.87" width="44.29" height="30.59" transform="translate(-.17 .94) rotate(-.08)"/>
    </clipPath>
  </defs>
  <g class="cls-21">
    <g id="Layer_2" data-name="Layer 2">
      <g id="OBJECTS">
        <g>
          <path class="cls-12" d="M132.15,179.35l12.02,43.94-4.28-4.94c1.59,.84,3.42,1.49,5.46,1.95,2.03,.46,4.25,.72,6.56,.84,2.32,.12,4.73,.1,7.2,0,2.47-.1,4.99-.29,7.55-.51h.01c3.78-.32,7.1,2.48,7.43,6.26,.31,3.6-2.25,6.8-5.76,7.37-2.64,.42-5.33,.82-8.09,1.14-2.76,.32-5.58,.56-8.51,.62-2.92,.06-5.96-.05-9.09-.5-3.13-.45-6.37-1.27-9.54-2.64-2.03-.88-3.47-2.54-4.13-4.48l-.15-.46-14.42-43.21c-1.62-4.86,1-10.11,5.86-11.73,4.86-1.62,10.11,1,11.73,5.86,.05,.15,.11,.34,.15,.49Z"/>
          <g>
            <g>
              <path class="cls-26" d="M79.7,297.81h0c-11.92,0-21.67-9.75-21.67-21.67v-67.91c0-11.92,9.75-21.67,21.67-21.67h0c11.92,0,21.67,9.75,21.67,21.67v67.91c0,11.92-9.75,21.67-21.67,21.67Z"/>
              <path class="cls-26" d="M141.64,297.81h-58.77c-13.43,0-24.32-10.89-24.32-24.32v-5.81h83.09c8.32,0,15.07,6.75,15.07,15.07h0c0,8.32-6.74,15.07-15.07,15.07Z"/>
              <g>
                <path class="cls-26" d="M107.56,325.23h0c-2.52,0-4.57-2.04-4.57-4.57v-27.89h9.13v27.89c0,2.52-2.04,4.57-4.57,4.57Z"/>
                <path class="cls-26" d="M134.65,362.28v5.8h-4.2v-2.62c0-.74-.6-1.34-1.34-1.34h-17.99c-.62,0-1.12,.5-1.12,1.12v2.83h-4.89v-2.83c0-.62-.5-1.12-1.12-1.12h-17.85c-.74,0-1.34,.6-1.34,1.34v2.62h-4.2v-5.8c0-1.3,1.06-2.36,2.36-2.36h22.16v-74.72h4.89v74.72h22.29c1.3,0,2.36,1.06,2.36,2.36Z"/>
              </g>
              <g>
                <path class="cls-26" d="M89.01,371.83c0,3.45-2.8,6.25-6.25,6.25s-6.25-2.8-6.25-6.25,2.8-6.25,6.25-6.25,6.25,2.8,6.25,6.25Z"/>
                <path class="cls-26" d="M82.75,375.41c-1.98,0-3.58-1.61-3.58-3.58s1.61-3.58,3.58-3.58,3.58,1.61,3.58,3.58-1.61,3.58-3.58,3.58Z"/>
              </g>
              <g>
                <path class="cls-26" d="M113.88,371.83c0,3.45-2.8,6.25-6.25,6.25s-6.25-2.8-6.25-6.25,2.8-6.25,6.25-6.25,6.25,2.8,6.25,6.25Z"/>
                <path class="cls-26" d="M107.62,375.41c-1.98,0-3.58-1.61-3.58-3.58s1.61-3.58,3.58-3.58,3.58,1.61,3.58,3.58-1.61,3.58-3.58,3.58Z"/>
              </g>
              <g>
                <path class="cls-26" d="M138.84,371.83c0,3.45-2.8,6.25-6.25,6.25s-6.25-2.8-6.25-6.25,2.8-6.25,6.25-6.25,6.25,2.8,6.25,6.25Z"/>
                <path class="cls-26" d="M132.58,375.41c-1.98,0-3.58-1.61-3.58-3.58s1.61-3.58,3.58-3.58,3.58,1.61,3.58,3.58-1.61,3.58-3.58,3.58Z"/>
              </g>
            </g>
            <g>
              <path class="cls-26" d="M110.64,118.33s-4.76-8.82-15.45-6.99c-7.48,1.28-12.14,7.02-11.7,21.41,.64,20.93-6.44,33.55-6.44,33.55l9.4,2.14s26.12-33.23,24.19-50.11Z"/>
              <g>
                <g>
                  <path class="cls-25" d="M194.17,342.82h-15.18s-3.51-16.85-4.69-26.3c-1.18-9.45-1.79-31.85-1.79-31.85,0,0-12.1,3.93-37.43,2.45-56.12-3.28-34.84-44.51-34.84-44.51,1.9,2.62,13.51,.8,21.45,2.05,24.37,2.34,45.5,11.9,58.18,17.37,3.05,1.32,5.77,2.71,8.15,4.18,3.06,1.88,4.97,7.6,6.12,15.12,3.47,22.6,.04,61.49,.04,61.49Z"/>
                  <path class="cls-11" d="M180.87,334.7c-.25,0-.48-.18-.53-.44-2.19-10.84-2.92-24.33-3.52-35.18-.49-8.99-.95-17.48-2.11-18.5-.94-.83-4.82-.18-9.74,.63-9.78,1.62-24.56,4.08-40.86,.28-8.88-2.07-15.41-6.38-19.4-12.82-6.89-11.11-3.75-24.88-3.72-25.01,.07-.29,.36-.47,.65-.4,.29,.07,.47,.36,.4,.65-.03,.13-3.07,13.48,3.59,24.2,3.84,6.18,10.13,10.33,18.72,12.33,16.09,3.74,30.74,1.31,40.44-.3,5.81-.96,9.31-1.55,10.63-.38,1.43,1.26,1.83,7.47,2.47,19.26,.59,10.81,1.32,24.26,3.5,35.02,.06,.29-.13,.58-.42,.64-.04,0-.07,.01-.11,.01Z"/>
                  <path class="cls-11" d="M194.46,334.98s0,0-.01,0l-16.88-.36c-.3,0-.54-.25-.53-.55,0-.3,.25-.55,.55-.53l16.88,.36c.3,0,.54,.25,.53,.55,0,.3-.25,.53-.54,.53Z"/>
                </g>
                <g>
                  <polygon class="cls-12" points="193.76 362.27 183.04 362.27 180.98 349.7 179.85 342.82 193.16 342.82 193.37 349.7 193.76 362.27"/>
                  <g>
                    <polygon class="cls-25" points="193.76 362.27 183.04 362.27 181.5 352.91 180.98 349.7 193.37 349.7 193.47 353.03 193.76 362.27"/>
                    <polygon class="cls-12" points="193.47 353.03 181.5 352.91 180.98 349.7 193.37 349.7 193.47 353.03"/>
                  </g>
                  <g>
                    <path class="cls-29" d="M220.2,379.19h-40.53c-.3-.55-.47-1.32-.53-2.25-.25-3.43,.84-8.9,1.37-12.35,.07-.4,.12-.78,.16-1.12,.07-.58,.12-1.06,.12-1.41,0-2.82,2.49-2.33,2.49-2.33,4.1,4.02,8.75-2.01,11.46-.03,0,0,.11,.08,.36,.27,.23,.18,.57,.46,1.05,.86,.69,.58,1.66,1.42,2.97,2.6,3.22,2.9,8.69,4.81,13.35,6.75,.59,.25,1.15,.5,1.66,.74,.39,.19,.75,.38,1.1,.56,3.81,2.06,5.02,4.02,5.3,5.45,.26,1.37-.33,2.25-.33,2.25Z"/>
                    <path class="cls-23" d="M215.24,371.49c-1.04,.83-3.37,2.49-5.23,2.49-.08,0-.16,0-.24,0-1.31-.11-6.15-2.48-10.08-4.64-2.25-1.24-4.31-2.46-5.79-3.43-2.43-1.6-2.85-2.21-2.94-2.63-.35-1.6,2.29-2.71,4.14-3.29,.23,.18,.57,.46,1.05,.86-2.3,.63-4.2,1.61-4.11,2.17,.23,.47,2.62,2.3,8.36,5.44,4.38,2.39,8.53,4.33,9.45,4.41,1.25,.1,3.08-1.03,4.28-1.93,.39,.19,.75,.38,1.1,.56Z"/>
                    <path class="cls-23" d="M220.2,379.19h-40.53c-.3-.55-.47-1.32-.53-2.25h41.4c.26,1.37-.33,2.25-.33,2.25Z"/>
                    <path class="cls-23" d="M183.8,379.19h-1.2c1.2-1.37,2.33-3.48,2.18-6.49-.2-4.01-2.6-6.7-4.27-8.11,.07-.4,.12-.78,.16-1.12,1.8,1.38,4.83,4.39,5.07,9.18,.14,2.88-.8,5.02-1.94,6.54Z"/>
                    <path class="cls-11" d="M198.44,365.82c-.3,0-.57-.2-.65-.51-.09-.36,.13-.72,.49-.81l2.53-.63c.36-.09,.72,.13,.81,.49,.09,.36-.13,.72-.49,.81l-2.53,.63c-.05,.01-.11,.02-.16,.02Z"/>
                    <path class="cls-11" d="M195.93,363.72c-.3,0-.57-.2-.65-.51-.09-.36,.13-.72,.49-.81l2.53-.63c.36-.09,.72,.13,.81,.49,.09,.36-.13,.72-.49,.81l-2.53,.63c-.05,.01-.11,.02-.16,.02Z"/>
                    <path class="cls-11" d="M200.98,367.3c-.3,0-.57-.2-.65-.51-.09-.36,.13-.72,.49-.81l2.53-.63c.36-.09,.72,.13,.81,.49,.09,.36-.13,.72-.49,.81l-2.53,.63c-.05,.01-.11,.02-.16,.02Z"/>
                    <path class="cls-11" d="M203.51,368.71c-.3,0-.57-.2-.65-.51-.09-.36,.13-.72,.49-.81l2.53-.63c.36-.09,.72,.13,.81,.49,.09,.36-.13,.72-.49,.81l-2.53,.63c-.05,.01-.11,.02-.16,.02Z"/>
                    <path class="cls-11" d="M206.27,370.02c-.3,0-.57-.2-.65-.51-.09-.36,.13-.72,.49-.81l2.53-.63c.36-.09,.72,.13,.81,.49,.09,.36-.13,.72-.49,.81l-2.53,.63c-.05,.01-.11,.02-.16,.02Z"/>
                    <path class="cls-11" d="M209.26,371.13c-.3,0-.57-.2-.65-.51-.09-.36,.13-.72,.49-.81l2.53-.63c.36-.09,.72,.13,.81,.49,.09,.36-.13,.72-.49,.81l-2.53,.63c-.05,.01-.11,.02-.16,.02Z"/>
                  </g>
                </g>
              </g>
              <g>
                <path class="cls-23" d="M72.14,229.53s-.48,3.27,3.91,4.19l45.73,1.52s3.09-1.55,2.53-5.38c0,0-19.31-10.84-52.17-.34Z"/>
                <g>
                  <path class="cls-12" d="M122.4,244.65c-23.74,13.06-49.65,2.54-49.65,2.54,1.27-3.46,2.21-7.36,2.89-10.91,.79-4.13,1.24-7.77,1.44-9.69,10.1-.55,34.85-1.61,44.54,.69l.08,3.89,.71,13.48Z"/>
                  <path class="cls-4" d="M104.86,238.39c-.18,1.22-.73,2.16-1.23,2.08-.51-.07-.77-1.12-.6-2.35,.18-1.22,.73-2.16,1.23-2.08,.51,.07,.77,1.12,.6,2.35Z"/>
                </g>
                <g>
                  <path class="cls-29" d="M132.97,212c-.09,.29-.21,.56-.34,.82-.05,.1-.1,.19-.15,.29-1.27,2.34-3.24,4.37-4.89,5.81-.34,.3-.67,.57-.98,.82-.61,.49-1.13,.87-1.48,1.12-.33,.23-.52,.35-.52,.35,0,.02,0,.04,0,.07-.02,.17-.03,.36-.05,.55-.06,.74-.11,1.63-.14,2.63-.03,.81-.05,1.7-.08,2.65-.01,.71-.03,1.45-.03,2.22-13.41-5.95-41.04-2.19-52.17-.33,.2-.95,.39-1.89,.56-2.8,.79-4.21,1.23-8,1.4-11.4,.26-5.06-.18-12.65-1.26-20.5-.07-.51-.14-1.02-.22-1.53-.05-.33-.1-.66-.15-.99-.38-2.46-.82-4.93-1.33-7.33-2.19-10.45-.65-21.41,10.02-22.71,.77-.09,1.54-.18,2.28-.26,5.03-.53,9.17-.71,10.32-.76,.21,0,.32-.01,.32-.01l20.63,5.95,1.96,.56c1.13,.36,2.17,.71,3.13,1.05,.41,.15,.81,.29,1.19,.43,1,.37,1.91,.74,2.73,1.1,1.65,.72,2.96,1.43,4,2.16,4.53,3.19,3.82,6.79,3.71,13.91,0,.03,0,.06,0,.1,0,.09,0,.18,0,.27,0,.04,0,.08,0,.12,0,.29,0,.58,0,.87,0,.92,.04,1.83,.09,2.75,.08,1.34,.2,2.68,.34,3.99,.06,.52,.12,1.05,.18,1.56,.06,.49,.12,.97,.19,1.45,.83,6.23,1.85,11.69,.73,15.01Z"/>
                  <path class="cls-23" d="M131.43,185.97c0,.09,0,.18,0,.27,0,.04,0,.08,0,.12,0,.29,0,.58,0,.87l-4.33,2.7c-.13,.08-.28,.11-.43,.08-.16-.03-.31-.12-.41-.27-.18-.28-.09-.65,.19-.83l4.6-2.86c.12-.07,.26-.1,.39-.09Z"/>
                  <path class="cls-23" d="M102.85,209.02c-.17,0-.33-.07-.45-.2-.22-.25-.2-.63,.04-.85l4.03-3.6c.25-.22,.63-.2,.85,.04,.22,.25,.2,.63-.05,.85l-4.03,3.6c-.12,.1-.26,.15-.4,.15Z"/>
                  <path class="cls-23" d="M132.24,196.99l-2.76,2.47c-.12,.1-.26,.15-.41,.15-.17,0-.33-.07-.45-.2-.22-.25-.2-.63,.04-.85l3.39-3.02c.06,.49,.12,.97,.19,1.45Z"/>
                  <path class="cls-23" d="M94.67,194.53c-.09-.14-.13-.31-.09-.48,.08-.32,.4-.52,.73-.45l5.28,1.24c.33,.08,.53,.4,.45,.72s-.4,.52-.73,.45l-5.28-1.24c-.15-.04-.28-.12-.36-.24Z"/>
                  <path class="cls-23" d="M75.82,204.82c-.17,0-.33-.07-.45-.2-.22-.25-.2-.63,.04-.85l4.03-3.6c.25-.22,.63-.2,.85,.04,.22,.25,.2,.63-.05,.85l-4.03,3.6c-.12,.1-.26,.15-.4,.15Z"/>
                  <path class="cls-23" d="M122.77,203.96c.05-.16,.17-.29,.33-.36,.31-.13,.66,0,.8,.31l2.17,4.94c.13,.3,0,.66-.31,.79-.31,.13-.66,0-.8-.31l-2.17-4.94c-.06-.14-.06-.29-.02-.43Z"/>
                  <path class="cls-23" d="M132.97,212c-.09,.29-.21,.56-.34,.82-.05,.1-.1,.19-.15,.29l-2.95-.92c-.15-.05-.27-.14-.34-.27-.08-.14-.11-.32-.06-.48,.1-.32,.44-.49,.76-.39l3.08,.96Z"/>
                  <path class="cls-23" d="M116.31,212.43c.16-.02,.34,.03,.47,.15,.25,.22,.27,.6,.04,.85l-3.65,3.99c-.22,.25-.61,.26-.85,.04-.25-.22-.27-.6-.04-.85l3.65-3.99c.1-.11,.24-.18,.39-.19Z"/>
                  <path class="cls-23" d="M114.16,203.24c-.16-.03-.31-.12-.41-.27-.18-.28-.09-.65,.19-.83l4.6-2.86c.28-.18,.66-.09,.83,.19,.18,.28,.09,.65-.19,.83l-4.6,2.86c-.13,.08-.28,.11-.43,.08Z"/>
                  <path class="cls-23" d="M117.09,185.89c.11,.12,.17,.29,.15,.47-.04,.33-.33,.57-.67,.53l-5.39-.58c-.33-.04-.57-.33-.54-.66s.33-.57,.67-.53l5.39,.58c.15,.02,.29,.09,.39,.2Z"/>
                  <path class="cls-23" d="M109.25,174.28c.04-.16,.14-.3,.3-.39,.29-.16,.66-.05,.82,.24l2.57,4.74c.16,.29,.05,.66-.25,.81-.29,.16-.66,.05-.82-.25l-2.57-4.74c-.07-.14-.09-.29-.05-.43Z"/>
                  <path class="cls-23" d="M127.59,218.92c-.34,.3-.67,.57-.98,.82l-.71-1.79c-.06-.14-.05-.3,0-.43,.06-.15,.18-.28,.34-.35,.31-.12,.66,.03,.78,.34l.56,1.42Z"/>
                  <path class="cls-23" d="M77.98,209.79c-.08-.14-.1-.32-.04-.49,.11-.31,.46-.47,.77-.36l5.11,1.82c.31,.11,.48,.46,.36,.77-.11,.31-.46,.47-.77,.36l-5.11-1.82c-.15-.05-.26-.15-.33-.28Z"/>
                  <path class="cls-23" d="M80.48,216.64c.17,0,.33,.07,.45,.2,.22,.25,.2,.63-.05,.85l-4.06,3.57c-.25,.22-.63,.2-.85-.05-.22-.25-.2-.63,.05-.85l4.06-3.57c.12-.1,.26-.15,.41-.15Z"/>
                  <path class="cls-23" d="M87.85,222.31c.1,.13,.15,.3,.12,.47-.06,.33-.37,.55-.7,.49l-5.35-.9c-.33-.06-.55-.37-.49-.69,.06-.33,.37-.55,.7-.49l5.35,.9c.15,.03,.28,.11,.37,.22Z"/>
                  <path class="cls-23" d="M92.32,171.89c-.04-.16-.02-.33,.08-.48,.18-.28,.56-.36,.84-.18l4.56,2.92c.28,.18,.36,.55,.18,.83-.18,.28-.56,.36-.84,.18l-4.56-2.92c-.13-.08-.22-.21-.26-.35Z"/>
                  <path class="cls-23" d="M123.44,175.33c.15-.08,.32-.1,.49-.04,.31,.11,.48,.45,.37,.77l-1.81,5.08c-.11,.31-.46,.48-.77,.37-.31-.11-.48-.45-.37-.77l1.81-5.08c.05-.15,.15-.26,.28-.33Z"/>
                  <path class="cls-23" d="M121,168.71l-2.8,3.57c-.21,.26-.58,.31-.85,.1-.26-.2-.31-.58-.1-.84l2.56-3.26c.41,.15,.81,.29,1.19,.43Z"/>
                  <path class="cls-23" d="M93.59,217.97c.06,.17,.2,.29,.37,.32,.08,.02,.17,.01,.25-.01,.09-.03,8.87-2.85,18.1,.95,4.69,1.93,8.87,2.67,12.24,2.6,.01-.19,.03-.38,.05-.55,0-.02,0-.05,0-.07,0,0,.19-.12,.52-.35-3.32,.16-7.57-.53-12.43-2.53-9.59-3.94-18.42-1.09-18.79-.97-.26,.09-.4,.36-.31,.62Z"/>
                  <path class="cls-23" d="M114.71,166.67c-1.15,1.78-3.54,3.79-8.37,3.45-6.66-.48-11.05-6.79-12.58-9.38,.21,0,.32-.01,.32-.01l20.63,5.95Z"/>
                  <path class="cls-11" d="M107.62,178.37c.2,.04,.39,.07,.59,.08,1.84,.15,3.33-.38,4.43-1.58,3.2-3.47,1.89-11.39,1.83-11.73-.05-.27-.3-.45-.57-.4-.27,.05-.45,.3-.4,.57,.01,.08,1.29,7.78-1.59,10.9-.9,.97-2.08,1.38-3.63,1.26-6.46-.52-13.69-16.79-13.76-16.95-.11-.25-.4-.36-.65-.25-.25,.11-.36,.4-.25,.65,.3,.67,7.16,16.08,14,17.45Z"/>
                  <path class="cls-12" d="M127.73,171.97c-.43,4.7,.74,12.45,3.79,18.02-.07-1.2-.11-2.41-.09-3.62,0-.04,0-.08,0-.12,0-.12,0-.25,0-.37,.11-7.12,.82-10.72-3.71-13.91Z"/>
                  <path class="cls-12" d="M89.78,180.24c-2.37,9.06-11.02,16.34-16.94,14.07-.07-.51-.14-1.02-.22-1.53-.05-.33-.1-.66-.15-1-.38-2.46-.82-4.93-1.33-7.33-2.19-10.45-.65-21.41,10.02-22.71,.78-.09,1.54-.18,2.28-.26,5.34,2.26,9.06,8.31,6.34,18.75Z"/>
                  <path class="cls-12" d="M91,173.33l13.87,50.32-4.94-5.66c1.83,.97,3.95,1.71,6.3,2.23,2.34,.52,4.9,.83,7.57,.96,2.67,.14,5.46,.11,8.31,0,2.85-.12,5.76-.33,8.72-.58h.02c4.36-.37,8.2,2.84,8.57,7.17,.35,4.13-2.6,7.78-6.65,8.44-3.05,.48-6.15,.94-9.33,1.3-3.18,.36-6.44,.64-9.82,.71-3.38,.07-6.87-.05-10.49-.57-3.61-.52-7.35-1.45-11.01-3.02-2.34-1-4.01-2.91-4.77-5.13l-.18-.52-16.64-49.49c-1.87-5.56,1.16-11.58,6.76-13.43,5.61-1.86,11.67,1.15,13.54,6.71,.06,.17,.12,.38,.17,.56Z"/>
                  <path class="cls-14" d="M123.43,237.51c-3.18,.36-6.44,.64-9.82,.71-3.38,.07-6.87-.05-10.49-.57-3.61-.52-7.35-1.45-11.01-3.02-2.34-1-4.01-2.91-4.77-5.13l-.18-.52-16.64-49.49"/>
                  <g>
                    <path class="cls-4" d="M97.2,222.04c-.14,0-.28-.07-.36-.21-.11-.2-.04-.44,.15-.56,.13-.07,3.16-1.77,6.33-2.02,.23-.02,.42,.15,.44,.38,.02,.22-.15,.42-.38,.44-2.98,.23-5.96,1.89-5.99,1.91-.06,.04-.13,.05-.2,.05Z"/>
                    <path class="cls-4" d="M102.24,220.22c-.07,0-.15-.02-.21-.06-1.91-1.15-4.23-1.33-4.25-1.33-.23-.02-.4-.21-.38-.44,.02-.22,.21-.39,.44-.38,.1,0,2.54,.19,4.62,1.44,.19,.12,.26,.37,.14,.56-.08,.13-.21,.2-.35,.2Z"/>
                  </g>
                  <path class="cls-23" d="M114.61,193.7c6.14,1.23,8.82-5.06,8.85-5.13,.1-.25-.02-.54-.27-.64-.25-.1-.54,.02-.64,.27-.1,.24-2.41,5.61-7.74,4.54-5.59-1.12-16.02-12.04-16.12-12.15-.19-.2-.5-.21-.7-.02-.2,.19-.21,.5-.02,.69,.44,.46,10.75,11.26,16.65,12.44Z"/>
                </g>
                <g>
                  <path class="cls-26" d="M99.16,152.74s-10.41-5.82-8.36-17.94c2.05-12.12,10.02-19.42,22.26-15.9,0,0-1.19,35.04-13.9,33.84Z"/>
                  <path class="cls-26" d="M128.1,130.45s1.06,10.4-.83,11.91c-1.9,1.5-3.75-2.61-3.75-2.61,0,0,2.58-9.19,4.59-9.3Z"/>
                  <g>
                    <path class="cls-12" d="M114.26,158.32l-1.28,8.6s-4.4,7.51-16.59-3.5c1.39-3.5,2.65-8.76,2.1-12.22,0,0,.89,.82,2.42,1.79,.31,.2,.65,.41,1.01,.63,3.17,1.92,8.01,4.39,12.34,4.69Z"/>
                    <g>
                      <path class="cls-12" d="M126.34,141.09c-.14,.91-.26,1.78-.39,2.6-.06,.36-.11,.71-.17,1.06-.07,.51-.15,.99-.23,1.46-.33,2.05-.67,3.79-1.02,5.22-.67,2.7-1.42,4.35-2.49,5.17-8.34,6.4-23.05-4.9-23.52-5.27,0,0-.02,0-.02,0-.04-.69-.08-1.37-.1-2.05-.19-5.71,.51-10.89,1.81-15.71,.5-5.22,4.29-9.57,9.43-10.63,5.32-1.08,9.51,1.81,12.1,3.05,3.91,1.88,5.71,7.56,4.61,15.11Z"/>
                      <path class="cls-18" d="M114.2,158.46c-7.48-.82-15.34-6.87-15.69-7.14"/>
                    </g>
                    <path class="cls-26" d="M118.5,150.6c-4.66,0-6.53-4.46-6.55-4.51-.09-.22,.02-.46,.23-.55,.22-.09,.46,.02,.55,.23h0c.08,.2,2.04,4.83,7.13,3.85,.23-.04,.45,.11,.5,.34,.04,.23-.11,.45-.34,.5-.54,.1-1.05,.15-1.52,.15Z"/>
                    <path class="cls-26" d="M114.91,134.49c1.2-.42,.96-2.18-.31-2.26-2.16-.14-5.62-.09-5.91,1.65-.42,2.54,3.6,1.48,6.15,.64,.03,0,.05-.02,.08-.03Z"/>
                    <path class="cls-26" d="M121.27,135.24c-.93-.86,0-2.38,1.2-1.95,2.03,.74,5.18,2.19,4.74,3.9-.64,2.5-3.89-.09-5.88-1.9-.02-.02-.04-.04-.06-.05Z"/>
                    <g class="cls-6">
                      <path class="cls-12" d="M111.88,144.82c-.28,1.87-1.94,3.17-3.72,2.91-1.78-.26-2.99-1.99-2.71-3.86,.28-1.87,1.94-3.17,3.72-2.91,1.78,.26,2.99,1.99,2.71,3.86Z"/>
                    </g>
                    <g class="cls-6">
                      <path class="cls-12" d="M125.78,144.75c-.07,.51-.15,.99-.23,1.46-.33,2.05-.67,3.79-1.02,5.22-1.5-.49-2.47-2.05-2.22-3.74,.26-1.78,1.8-3.05,3.47-2.93Z"/>
                    </g>
                    <g>
                      <path class="cls-26" d="M114.44,141.16c-.14,.96-.69,1.67-1.23,1.59-.54-.08-.86-.92-.71-1.88,.14-.96,.69-1.67,1.23-1.59,.54,.08,.86,.92,.71,1.88Z"/>
                      <path class="cls-26" d="M123.95,142.57c-.14,.96-.69,1.67-1.23,1.59-.54-.08-.86-.92-.71-1.88,.14-.96,.69-1.67,1.23-1.59,.54,.08,.86,.92,.71,1.88Z"/>
                    </g>
                    <path class="cls-26" d="M102.22,147.89c-.06,.1-1.76,2.84-3.71,3.43,0,0,0,0,0,0,0,0,0-.01,0-.01-.05-.69-.08-1.38-.11-2.05,.07,0,1.95-.05,3.82-1.37Z"/>
                    <path class="cls-12" d="M101.45,140.96s-3.07-5.73-6.49-2.1c-2.82,3,.23,12.54,5.41,9.99l1.09-7.9Z"/>
                    <path class="cls-26" d="M99.97,147.29c-.2-.03-.35-.21-.34-.41,.15-3.97-2.92-5.82-3.05-5.89-.19-.11-.25-.36-.14-.55,.11-.19,.35-.26,.55-.14,.15,.09,3.62,2.16,3.44,6.62,0,.22-.19,.39-.41,.38-.01,0-.03,0-.04,0Z"/>
                    <path class="cls-26" d="M96.64,144.34c-.12-.02-.22-.08-.29-.19-.11-.19-.05-.44,.14-.55,.18-.1,1.76-1.01,2.9-.53,.2,.09,.3,.32,.21,.52s-.32,.3-.52,.21c-.66-.28-1.83,.27-2.18,.48-.08,.05-.17,.06-.26,.05Z"/>
                    <path class="cls-16" d="M119.34,140.98s-.38,2.83-.02,4.36c.09,.37-.25,.69-.61,.59l-1.95-.53"/>
                  </g>
                  <path class="cls-26" d="M121.38,120.73c3.55,1.6,6.34,4.55,7.58,8.24,.78,2.31,1.43,5.36-1.82,4.96-8.86-1.08-13.6-10.27-13.6-10.27,0,0-1.72,8.47-8.68,7.44-6.96-1.04-6.74-6.28-2.78-9.25,3.22-2.42,11.43-4.67,19.3-1.12Z"/>
                  <path class="cls-26" d="M105.13,130.13s-3.96,4.25-2.54,8.82c1.42,4.58,1.52,8.24,.04,10.7,0,0-.38-4.82-2.15-8.47-1.45-3-2.8-5.28-1.75-8.74,.72-2.37,2.45-4.66,6.4-2.32Z"/>
                </g>
              </g>
              <g>
                <path class="cls-25" d="M167.74,342.87h-15.18s-3.51-16.85-4.69-26.3c-1.18-9.45-1.79-31.85-1.79-31.85,0,0-12.1,3.93-37.43,2.45-56.12-3.28-34.84-44.51-34.84-44.51,1.9,2.62,16.12,6.23,24.06,7.48,24.37,2.34,42.89,6.48,55.57,11.95,3.05,1.32,5.77,2.71,8.15,4.18,3.06,1.88,4.97,7.6,6.12,15.12,3.46,22.6,.04,61.49,.04,61.49Z"/>
                <path class="cls-18" d="M97.86,250.13c24.37,2.34,42.89,6.48,55.57,11.95,3.05,1.32,5.77,2.71,8.15,4.18,3.06,1.88,4.97,7.6,6.12,15.12,1.99,12.98,1.71,31.34,1.11,44.62"/>
                <path class="cls-11" d="M154.44,334.75c-.25,0-.48-.18-.53-.44-2.19-10.84-2.93-24.33-3.52-35.18-.49-8.99-.95-17.48-2.11-18.5-.94-.83-4.82-.18-9.74,.63-9.78,1.62-24.56,4.08-40.86,.28-8.88-2.07-15.41-6.38-19.4-12.82-6.89-11.11-3.75-24.88-3.72-25.01,.07-.29,.36-.47,.65-.4,.29,.07,.47,.36,.4,.65-.03,.13-3.07,13.48,3.59,24.2,3.84,6.18,10.13,10.33,18.72,12.33,16.09,3.74,30.74,1.31,40.44-.3,5.81-.96,9.31-1.55,10.63-.38,1.43,1.26,1.83,7.47,2.47,19.26,.59,10.81,1.32,24.26,3.5,35.02,.06,.29-.13,.58-.43,.64-.04,0-.07,.01-.11,.01Z"/>
                <path class="cls-11" d="M168.03,335.03s0,0-.01,0l-16.88-.36c-.3,0-.54-.25-.53-.55,0-.3,.25-.54,.55-.53l16.88,.36c.3,0,.54,.25,.53,.56,0,.3-.25,.53-.54,.53Z"/>
              </g>
              <g>
                <polygon class="cls-12" points="167.32 362.32 156.61 362.32 154.54 349.75 153.41 342.87 166.73 342.87 166.94 349.75 167.32 362.32"/>
                <g>
                  <polygon class="cls-25" points="167.32 362.32 156.61 362.32 155.07 352.96 154.54 349.75 166.94 349.75 167.04 353.08 167.32 362.32"/>
                  <polygon class="cls-12" points="167.04 353.08 155.07 352.96 154.54 349.75 166.94 349.75 167.04 353.08"/>
                </g>
                <g>
                  <path class="cls-29" d="M193.77,379.25h-40.53c-.3-.55-.47-1.32-.53-2.25-.25-3.43,.84-8.9,1.37-12.35,.07-.4,.12-.78,.16-1.12,.07-.58,.12-1.06,.12-1.41,0-2.81,2.49-2.33,2.49-2.33,4.1,4.02,8.75-2.01,11.46-.03,0,0,.11,.08,.36,.27,.23,.18,.57,.46,1.05,.86,.69,.58,1.66,1.42,2.97,2.6,3.22,2.9,8.69,4.81,13.35,6.75,.59,.25,1.15,.5,1.66,.74,.39,.19,.75,.38,1.1,.56,3.81,2.06,5.02,4.02,5.3,5.45,.26,1.37-.33,2.25-.33,2.25Z"/>
                  <path class="cls-23" d="M188.81,371.54c-1.04,.83-3.37,2.49-5.23,2.49-.08,0-.16,0-.24,0-1.32-.11-6.15-2.48-10.08-4.64-2.25-1.24-4.31-2.46-5.79-3.43-2.43-1.6-2.85-2.21-2.94-2.63-.35-1.6,2.29-2.71,4.14-3.29,.23,.18,.57,.46,1.05,.86-2.3,.63-4.2,1.61-4.11,2.17,.23,.47,2.62,2.3,8.36,5.44,4.38,2.39,8.53,4.33,9.45,4.41,1.25,.1,3.08-1.03,4.28-1.93,.39,.19,.75,.38,1.1,.56Z"/>
                  <path class="cls-23" d="M193.77,379.25h-40.53c-.3-.55-.47-1.32-.53-2.25h41.4c.26,1.37-.33,2.25-.33,2.25Z"/>
                  <path class="cls-23" d="M157.37,379.25h-1.2c1.2-1.37,2.33-3.48,2.18-6.49-.2-4.01-2.6-6.7-4.27-8.11,.07-.4,.12-.78,.16-1.12,1.8,1.38,4.83,4.39,5.07,9.18,.14,2.88-.8,5.02-1.94,6.54Z"/>
                  <path class="cls-11" d="M172.01,365.88c-.3,0-.57-.2-.65-.51-.09-.36,.13-.72,.49-.81l2.53-.63c.36-.09,.72,.13,.81,.49,.09,.36-.13,.72-.49,.81l-2.53,.63c-.05,.01-.11,.02-.16,.02Z"/>
                  <path class="cls-11" d="M169.5,363.77c-.3,0-.57-.2-.65-.51-.09-.36,.13-.72,.49-.81l2.53-.63c.36-.09,.72,.13,.81,.49,.09,.36-.13,.72-.49,.81l-2.53,.63c-.05,.01-.11,.02-.16,.02Z"/>
                  <path class="cls-11" d="M174.54,367.35c-.3,0-.57-.2-.65-.51-.09-.36,.13-.72,.49-.81l2.53-.63c.36-.09,.72,.13,.81,.49,.09,.36-.13,.72-.49,.81l-2.53,.63c-.05,.01-.11,.02-.16,.02Z"/>
                  <path class="cls-11" d="M177.08,368.76c-.3,0-.57-.2-.65-.51-.09-.36,.13-.72,.49-.81l2.53-.63c.36-.09,.72,.13,.81,.49,.09,.36-.13,.72-.49,.81l-2.53,.63c-.05,.01-.11,.02-.16,.02Z"/>
                  <path class="cls-11" d="M179.84,370.07c-.3,0-.57-.2-.65-.51-.09-.36,.13-.72,.49-.81l2.53-.63c.36-.09,.72,.13,.81,.49,.09,.36-.13,.72-.49,.81l-2.53,.63c-.05,.01-.11,.02-.16,.02Z"/>
                  <path class="cls-11" d="M182.83,371.19c-.3,0-.57-.2-.65-.51-.09-.36,.13-.72,.49-.81l2.53-.63c.36-.09,.72,.13,.81,.49,.09,.36-.13,.72-.49,.81l-2.53,.63c-.05,.01-.11,.02-.16,.02Z"/>
                </g>
              </g>
            </g>
          </g>
          <g>
            <g>
              <path class="cls-26" d="M222.61,173.45l-10.88,46.02-.29,1.21-.73,3.1c-.32,1.34-1.51,2.29-2.89,2.29h-73.31c-1.92,0-3.34-1.79-2.89-3.66l11.9-50.33c.32-1.34,1.51-2.29,2.89-2.29h73.31c1.92,0,3.34,1.79,2.89,3.65Z"/>
              <polygon class="cls-11" points="211.73 219.48 211.44 220.69 135.32 220.69 135.32 219.48 211.73 219.48"/>
              <path class="cls-11" d="M186.99,199.9c-.35,3.17-3.2,5.74-6.37,5.74s-5.45-2.57-5.1-5.74c.35-3.17,3.2-5.74,6.37-5.74s5.45,2.57,5.1,5.74Z"/>
              <path class="cls-26" d="M149.31,169.8l-12.67,56.28h-2.13c-1.92,0-3.33-1.79-2.89-3.66l11.9-50.33c.32-1.34,1.51-2.29,2.89-2.29h2.9Z"/>
              <polygon class="cls-26" points="170.55 226.07 168.32 238.58 175.67 238.58 177.89 226.07 170.55 226.07"/>
              <path class="cls-11" d="M157.33,236.43l1.5-2.11c.54-.75,1.41-1.2,2.33-1.2h20.14c1.07,0,2.04,.59,2.54,1.54l1.01,1.94c.47,.91-.18,1.99-1.21,1.99h-25.21c-1.11,0-1.75-1.25-1.11-2.15Z"/>
            </g>
            <path class="cls-11" d="M115.37,238.58h60.5l.66-2.28c.41-1.44-.66-2.87-2.16-2.87h-55.82c-1,0-1.88,.66-2.16,1.63l-1.01,3.52Z"/>
          </g>
        </g>
        <g>
          <g>
            <g>
              <path class="cls-26" d="M640.76,297.81h0c11.92,0,21.67-9.75,21.67-21.67v-67.91c0-11.92-9.75-21.67-21.67-21.67h0c-11.92,0-21.67,9.75-21.67,21.67v67.91c0,11.92,9.75,21.67,21.67,21.67Z"/>
              <path class="cls-26" d="M578.82,297.81h58.77c13.43,0,24.32-10.89,24.32-24.32v-5.81h-83.09c-8.32,0-15.07,6.75-15.07,15.07h0c0,8.32,6.74,15.07,15.07,15.07Z"/>
              <g>
                <path class="cls-26" d="M612.9,325.23h0c2.52,0,4.57-2.04,4.57-4.57v-27.89h-9.13v27.89c0,2.52,2.04,4.57,4.57,4.57Z"/>
                <path class="cls-26" d="M585.8,362.28v5.8h4.2v-2.62c0-.74,.6-1.34,1.34-1.34h17.99c.62,0,1.12,.5,1.12,1.12v2.83h4.88v-2.83c0-.62,.5-1.12,1.12-1.12h17.85c.74,0,1.34,.6,1.34,1.34v2.62h4.2v-5.8c0-1.3-1.06-2.36-2.36-2.36h-22.16v-74.72h-4.88v74.72h-22.29c-1.3,0-2.36,1.06-2.36,2.36Z"/>
              </g>
              <g>
                <path class="cls-26" d="M631.45,371.83c0,3.45,2.8,6.25,6.25,6.25s6.25-2.8,6.25-6.25-2.8-6.25-6.25-6.25-6.25,2.8-6.25,6.25Z"/>
                <path class="cls-26" d="M637.7,375.41c1.98,0,3.58-1.61,3.58-3.58s-1.61-3.58-3.58-3.58-3.58,1.61-3.58,3.58,1.61,3.58,3.58,3.58Z"/>
              </g>
              <g>
                <path class="cls-26" d="M606.58,371.83c0,3.45,2.8,6.25,6.25,6.25s6.25-2.8,6.25-6.25-2.8-6.25-6.25-6.25-6.25,2.8-6.25,6.25Z"/>
                <path class="cls-26" d="M612.83,375.41c1.98,0,3.58-1.61,3.58-3.58s-1.61-3.58-3.58-3.58-3.58,1.61-3.58,3.58,1.61,3.58,3.58,3.58Z"/>
              </g>
              <g>
                <path class="cls-26" d="M581.62,371.83c0,3.45,2.8,6.25,6.25,6.25s6.25-2.8,6.25-6.25-2.8-6.25-6.25-6.25-6.25,2.8-6.25,6.25Z"/>
                <path class="cls-26" d="M587.87,375.41c1.98,0,3.58-1.61,3.58-3.58s-1.61-3.58-3.58-3.58-3.58,1.61-3.58,3.58,1.61,3.58,3.58,3.58Z"/>
              </g>
            </g>
            <g>
              <path class="cls-22" d="M571.82,180.53l-3.79,45.39,3.31-5.64c-1.41,1.12-3.09,2.09-5.01,2.91-1.91,.82-4.04,1.49-6.3,2.03-2.26,.54-4.63,.96-7.08,1.31-2.45,.35-4.96,.63-7.52,.88h-.01c-3.77,.38-6.53,3.74-6.16,7.51,.36,3.6,3.45,6.27,7.01,6.19,2.67-.07,5.39-.17,8.16-.36,2.77-.19,5.59-.47,8.48-.94,2.89-.47,5.85-1.13,8.84-2.15,2.99-1.02,6.03-2.41,8.9-4.34,1.84-1.23,2.95-3.13,3.24-5.16l.07-.48,6.28-45.12c.71-5.07-2.83-9.75-7.9-10.46-5.07-.71-9.75,2.83-10.46,7.9-.02,.16-.04,.35-.06,.51Z"/>
              <g>
                <g>
                  <g>
                    <polygon class="cls-22" points="518.73 348.65 513.11 357.84 502.4 353.1 507.26 343.23 518.73 348.65"/>
                    <g>
                      <path class="cls-20" d="M468.48,358.89l40.51,17.93c.54-.41,1.05-1.12,1.53-2.01,1.77-3.31,3.1-9.27,4.09-12.95,.11-.43,.22-.83,.33-1.19,.18-.61,.35-1.11,.5-1.46,1.25-2.81-1.46-3.43-1.46-3.43-5.88,2.21-7.85-5.88-11.44-5.1,0,0-1.54,.32-6.03,1.79-4.49,1.47-10.81,.96-16.33,.85-7.12-.15-9.94,1.61-11.04,3.19-.87,1.25-.66,2.4-.66,2.4Z"/>
                      <path class="cls-11" d="M468.48,358.31l40.51,17.93c.54-.41,1.05-1.12,1.53-2.01l-41.37-18.31c-.87,1.25-.66,2.4-.66,2.4Z"/>
                      <path class="cls-11" d="M504.85,374.41l1.2,.53c-.59-1.9-.79-4.51,.69-7.45,1.97-3.92,5.56-5.55,7.85-6.22,.11-.43,.22-.83,.33-1.19-2.41,.58-6.77,2.25-9.13,6.93-1.41,2.81-1.42,5.37-.95,7.39Z"/>
                      <path class="cls-11" d="M496.14,354.57c.3,.13,.66,.05,.87-.22,.25-.32,.19-.78-.13-1.02l-2.25-1.75c-.32-.25-.78-.19-1.02,.13-.25,.32-.19,.78,.13,1.02l2.25,1.75s.1,.07,.15,.09Z"/>
                      <path class="cls-11" d="M499.58,353.58c.3,.13,.66,.05,.87-.22,.25-.32,.19-.78-.13-1.02l-2.25-1.75c-.32-.25-.78-.19-1.02,.13-.25,.32-.19,.78,.13,1.02l2.25,1.75s.1,.07,.15,.09Z"/>
                      <path class="cls-11" d="M492.96,354.93c.3,.13,.66,.05,.87-.22,.25-.32,.19-.78-.13-1.02l-2.25-1.75c-.32-.25-.78-.19-1.02,.13-.25,.32-.19,.78,.13,1.02l2.25,1.75s.1,.07,.15,.09Z"/>
                      <path class="cls-11" d="M489.8,355.22c.3,.13,.66,.05,.87-.22,.25-.32,.19-.78-.13-1.02l-2.25-1.75c-.32-.25-.78-.19-1.02,.13-.25,.32-.19,.78,.13,1.02l2.25,1.75s.1,.07,.15,.09Z"/>
                      <path class="cls-11" d="M486.46,355.31c.3,.13,.66,.05,.87-.22,.25-.32,.19-.78-.13-1.02l-2.25-1.75c-.32-.25-.78-.19-1.02,.13-.25,.32-.19,.78,.13,1.02l2.25,1.75s.1,.07,.15,.09Z"/>
                      <path class="cls-11" d="M482.98,355.1c.3,.13,.66,.05,.87-.22,.25-.32,.19-.78-.13-1.02l-2.25-1.75c-.32-.25-.78-.19-1.02,.13-.25,.32-.19,.78,.13,1.02l2.25,1.75s.1,.07,.15,.09Z"/>
                    </g>
                  </g>
                  <path class="cls-29" d="M543.88,260.06c3.76-3.7,33.42-11.97,53.11-6.47,2.26,4.34,5.13,15.35-1.93,25.52-25.89,4.23-40.33,12.94-40.33,12.94,0,0-9.18,21.21-14.63,29-5.45,7.79-17.96,32.51-17.96,32.51l-18.84-8.05s30.35-75.36,40.59-85.44Z"/>
                  <path class="cls-11" d="M524.15,348.88c-.07,0-.14-.01-.21-.04l-18.44-7.67c-.28-.12-.41-.43-.29-.71,.11-.28,.43-.41,.71-.29l18.44,7.67c.28,.11,.41,.43,.29,.71-.09,.21-.29,.33-.5,.33Z"/>
                  <path class="cls-11" d="M521.05,347.33c-.07,0-.13-.01-.2-.04-.28-.11-.41-.43-.3-.7,.04-.1,3.9-9.72,12.9-23.38,8.94-13.57,18.29-36.5,18.38-36.73,.11-.28,.43-.41,.71-.3,.28,.11,.41,.43,.3,.71-.09,.23-9.48,23.26-18.48,36.92-8.94,13.57-12.76,23.09-12.8,23.19-.08,.21-.29,.34-.5,.34Z"/>
                </g>
                <g>
                  <polygon class="cls-22" points="566.29 350.27 564.87 360.94 553.15 360.94 553.61 349.95 566.29 350.27"/>
                  <g>
                    <path class="cls-20" d="M524.25,379.44h44.3c.33-.6,.51-1.45,.58-2.46,.28-3.75-.92-9.73-1.5-13.5-.07-.44-.13-.85-.18-1.22-.08-.63-.13-1.15-.13-1.54,0-3.08-2.72-2.55-2.72-2.55-4.48,4.4-9.56-2.2-12.52-.03,0,0-1.28,.91-4.79,4.08-3.51,3.16-9.5,5.25-14.59,7.38-6.57,2.75-8.44,5.49-8.8,7.38-.29,1.5,.36,2.46,.36,2.46Z"/>
                    <path class="cls-11" d="M524.25,379.44h44.3c.33-.6,.51-1.45,.58-2.46h-45.25c-.29,1.5,.36,2.46,.36,2.46Z"/>
                    <path class="cls-11" d="M564.03,379.44h1.32c-1.31-1.5-2.54-3.8-2.38-7.09,.21-4.38,2.84-7.33,4.66-8.87-.07-.44-.13-.85-.18-1.22-1.97,1.5-5.28,4.79-5.54,10.04-.15,3.14,.88,5.49,2.12,7.15Z"/>
                    <path class="cls-11" d="M548.03,364.83c.33,0,.63-.22,.71-.55,.1-.39-.14-.79-.53-.88l-2.77-.69c-.39-.1-.79,.14-.88,.53-.1,.39,.14,.79,.53,.88l2.77,.69c.06,.01,.12,.02,.18,.02Z"/>
                    <path class="cls-11" d="M550.78,362.53c.33,0,.63-.22,.71-.55,.1-.39-.14-.79-.53-.88l-2.77-.69c-.39-.1-.79,.14-.88,.53-.1,.39,.14,.79,.53,.88l2.77,.69c.06,.01,.12,.02,.18,.02Z"/>
                    <path class="cls-11" d="M545.26,366.44c.33,0,.63-.22,.71-.55,.1-.39-.14-.79-.53-.88l-2.77-.69c-.39-.1-.79,.14-.88,.53-.1,.39,.14,.79,.53,.88l2.77,.69c.06,.01,.12,.02,.18,.02Z"/>
                    <path class="cls-11" d="M542.5,367.98c.33,0,.63-.22,.71-.55,.1-.39-.14-.79-.53-.88l-2.77-.69c-.39-.1-.79,.14-.88,.53-.1,.39,.14,.79,.53,.88l2.77,.69c.06,.01,.12,.02,.18,.02Z"/>
                    <path class="cls-11" d="M539.48,369.41c.33,0,.63-.22,.71-.55,.1-.39-.14-.79-.53-.88l-2.77-.69c-.39-.1-.79,.14-.88,.53-.1,.39,.14,.79,.53,.88l2.77,.69c.06,.01,.12,.02,.18,.02Z"/>
                    <path class="cls-11" d="M536.21,370.63c.33,0,.63-.22,.71-.55,.1-.39-.14-.79-.53-.88l-2.77-.69c-.39-.1-.79,.14-.88,.53-.1,.39,.14,.79,.53,.88l2.77,.69c.06,.01,.12,.02,.18,.02Z"/>
                  </g>
                </g>
                <g>
                  <g>
                    <path class="cls-20" d="M655.04,261.99c-.02,.18-.04,.35-.06,.52-.09,.07-.18,.14-.26,.2-6.88,5.28-14.9,8.78-23.09,10.78-.29,.07-.57,.14-.86,.2-1.41,.32-2.82,.61-4.23,.84-1.91,.32-3.82,.56-5.71,.73-1.68,.15-3.34,.24-4.99,.27-7.09,.13-13.81-.79-19.5-2.61-.22-.07-.43-.14-.65-.21-1.5-.5-2.93-1.07-4.27-1.7-.21-.09-.41-.19-.61-.29-.83-.41-1.63-.84-2.38-1.3,.12-2.73,.15-6,.12-9.5,0-.29,0-.58,0-.87-.05-4.86-.2-10.11-.39-14.91-.01-.23-.02-.45-.03-.68-.11-2.51-.22-4.89-.33-7.01-.01-.23-.02-.45-.04-.67-.09-1.79-.19-3.39-.28-4.7-.02-.33-.04-.66-.07-.99-.01-.26-.03-.51-.05-.76h0c-.07-.93-.15-1.83-.23-2.72-.12-1.42-.26-2.8-.4-4.14-.17-1.53-.35-3.01-.54-4.45-.21-1.54-.43-3.03-.66-4.46-.25-1.53-.51-3.01-.78-4.42-.95-4.99-2.02-9.27-3.09-12.96-.08-.25-.15-.5-.22-.75-.43-1.47-.87-2.84-1.29-4.12-.09-.28-.19-.56-.28-.84-2.38-7.06-4.35-11.33-4.38-14.19-.07-5.95,4.28-7.86,8.82-10.26,.21-.11,.43-.22,.64-.34,.76-.41,1.53-.85,2.27-1.32,.31-.2,.62-.4,.93-.62,.21-.15,.41-.3,.61-.44,1.8-1.38,3.38-3.13,4.4-5.59l17.15-3.62s1.64,.84,4.39,1.58c.26,.07,.52,.14,.8,.2,.32,.08,.66,.15,1.01,.22,.22,.05,.44,.09,.67,.12,.17,.03,.35,.06,.53,.09,1.64,.26,3.55,.42,5.69,.38,.21,0,.43,0,.65-.02,.15,0,.31-.01,.47-.02,1.46-.07,2.84,.11,4.18,.54h0c.26,.08,.51,.17,.76,.27,5.57,2.23,9.95,8.89,12.79,19.12,.79,2.84,1.56,5.61,2.32,8.32,.08,.3,.16,.59,.24,.88,.17,.59,.33,1.18,.49,1.77h0c.06,.22,.12,.43,.18,.64,.58,2.1,1.15,4.17,1.69,6.22h0c.06,.22,.12,.44,.17,.66t0,0c.03,.12,.06,.23,.09,.34l.31,1.2c1.9,7.32,3.49,14.38,4.5,21.49,.21,1.48,.4,2.96,.56,4.45,.04,.36,.08,.77,.13,1.22,0,.08,.02,.17,.03,.25,.02,.15,.03,.31,.05,.47,0,.08,.02,.16,.02,.24,.27,2.69,.63,6.43,.97,10.55,.02,.22,.04,.44,.06,.66,.8,9.59,1.51,21,.94,26.02Z"/>
                    <path class="cls-26" d="M602.85,167.81c6.85-1.44,10.55-10.01,10.71-10.38,.11-.25-.01-.54-.26-.64-.25-.11-.54,.01-.64,.26-.04,.09-3.8,8.81-10.4,9.88-6.5,1.06-9.09-3.73-9.19-3.93-.13-.24-.42-.33-.66-.21-.24,.12-.33,.42-.21,.66,.03,.06,3.01,5.62,10.22,4.45,.15-.02,.29-.05,.44-.08Z"/>
                    <path class="cls-20" d="M609.8,258.95c6.44-1.36,13.09-4.66,19.74-9.86,9.13-7.13,15.12-15.41,15.18-15.49,.16-.22,.11-.53-.11-.68-.22-.16-.53-.11-.68,.11-.06,.08-5.99,8.26-15.01,15.3-8.27,6.46-20.93,13.28-34.22,9.03-.26-.08-.53,.06-.62,.32-.08,.26,.06,.53,.32,.62,4.91,1.57,10.08,1.78,15.4,.65Z"/>
                    <path class="cls-20" d="M605.94,254.04s0,0,0,0c10.03-2.28,15.42-17.42,15.64-18.07,.09-.26-.05-.53-.3-.62-.25-.09-.53,.05-.62,.3-.05,.15-5.44,15.27-14.93,17.43-.26,.06-.43,.32-.37,.59,.06,.26,.32,.43,.58,.37Z"/>
                  </g>
                  <g>
                    <path class="cls-26" d="M604.86,112.47c-3.67-1.58-14.25-.89-14.25-.89,0,0-2.47-4.21-4.62-5.16-4.88-2.18-4.42,3.83-4.42,3.83,0,0-5.3-5.27-8.86-2.9-3.56,2.37,2.3,7.1,2.3,7.1,0,0-5.96-.09-4.48,4.72,1.48,4.81,7.41,6.01,7.41,6.01,0,0-1.24,3.07,.38,7.42,1.62,4.35,3.58,4.24,3.58,4.24l24.34-1.93s4.92-.83,5.16-7.26-4.49-8.27-4.49-8.27c0,0,1.98-5.18-2.05-6.92Z"/>
                    <path class="cls-22" d="M592.17,156.47l.76,4.5c.6,.34,1.19,.62,1.78,.85,8.62,3.37,16.07-3.87,16.07-3.87l-2.65-15.62-14.06,12.45-1.9,1.69Z"/>
                    <g>
                      <path class="cls-22" d="M582.22,148.52s1.57,9.32,11.25,7.65c9.63-1.65,14.9-10.32,15.19-10.72,0-.01,0-.02,0-.02l-.22-1.98-1.18-10.25-.62-5.48s-.43-9.98-10.02-10.19c-7.01-.15-13.18,2.06-15.8,6.14-.08,.13-.17,.26-.24,.4-.8,1.41-1.19,3.05-1.06,4.86l1.29,9.34,.06,.47,.33,2.4,.39,2.87,.62,4.5Z"/>
                      <path class="cls-14" d="M593.47,156.17c9.62-1.65,14.9-10.32,15.18-10.73"/>
                    </g>
                    <path class="cls-26" d="M591.71,129.15s3.49,1.78,5.09,0c1.6-1.78-2.97-2.66-4.37-2.3-1.39,.36-1.73,1.93-.72,2.3Z"/>
                    <path class="cls-26" d="M580.03,130.31s2.71-2.83,4.8-1.67c2.09,1.16-1.93,3.49-3.36,3.61-1.43,.12-2.27-1.26-1.44-1.93Z"/>
                    <path class="cls-11" d="M595.4,140.7s-5.71,2.19-8.74,2.43c0,0,1.86,4.21,6.07,2.35,3.28-1.44,2.67-4.78,2.67-4.78Z"/>
                    <path class="cls-26" d="M580.58,124.08c1.43-.8,2.61-.48,5.15,.16,3.68,.92,7.28-1.08,10.36-3.38,3.09-2.3,5.53-.24,4.64,1.53-.88,1.77-.54,3.03,1.08,4.83,1.62,1.79-1.92,3.36,.39,4.59,.97,.52,1.09,1.52,.9,2.51-.21,1.07,.85,1.96,1.88,1.58h0c1.05-.47,2.28-2.68,2.28-2.68l-.63-5.48s-.43-9.99-10.02-10.19c-7.01-.15-13.18,2.05-15.8,6.14-.08,.13-.17,.27-.24,.4Z"/>
                    <g class="cls-7">
                      <path class="cls-22" d="M593.66,138.14c.27,1.58,1.88,2.63,3.61,2.34,1.72-.29,2.9-1.81,2.63-3.4-.27-1.58-1.88-2.63-3.61-2.34-1.72,.29-2.9,1.81-2.63,3.4Z"/>
                    </g>
                    <g class="cls-7">
                      <path class="cls-22" d="M581.6,144.02s.06,0,.09,0c1.73-.29,2.9-1.81,2.64-3.4-.26-1.56-1.82-2.59-3.51-2.34l.06,.47,.33,2.4,.39,2.87Z"/>
                    </g>
                    <path class="cls-26" d="M591.73,134.3c.16,.93,.71,1.61,1.23,1.53,.52-.09,.82-.91,.66-1.85-.16-.93-.71-1.61-1.23-1.53-.52,.09-.82,.91-.66,1.85Z"/>
                    <path class="cls-26" d="M582.37,135.88c.16,.93,.71,1.61,1.23,1.53,.52-.09,.82-.91,.66-1.85-.16-.93-.71-1.61-1.23-1.53-.52,.09-.82,.92-.66,1.85Z"/>
                    <path class="cls-22" d="M605.59,135.42s2.88-5.63,6.27-2.16c2.8,2.86-.02,12.02-4.96,9.88l-1.31-7.72Z"/>
                    <path class="cls-26" d="M607.15,141.54c.19-.03,.33-.21,.32-.41-.23-3.86,2.72-5.71,2.84-5.79,.18-.11,.24-.35,.13-.53-.11-.18-.35-.24-.53-.13-.14,.09-3.47,2.17-3.22,6.5,.01,.21,.2,.38,.41,.36,.01,0,.03,0,.04,0Z"/>
                    <path class="cls-26" d="M610.33,138.62c.11-.02,.21-.09,.27-.19,.11-.19,.04-.42-.15-.53-.17-.1-1.73-.95-2.83-.46-.2,.09-.28,.32-.2,.51,.09,.2,.32,.28,.51,.2,.63-.28,1.75,.21,2.13,.42,.08,.05,.17,.06,.26,.04Z"/>
                    <path class="cls-16" d="M588.04,132.12s1.13,5.98-.61,7.42l3.11-.53"/>
                  </g>
                </g>
                <path class="cls-29" d="M650.82,253.88s9.14,36.08-38.27,36.08c-25.32,0-37.36-2.44-37.36-2.44,0,0-.61,22.36-1.79,31.79-1.18,9.43-5.35,32.94-5.35,32.94l-19.94,1.54s-3.19-81.86,9.04-89.39c12.22-7.54,29.8-7.76,59.97-10.66,0,0,27.09-4.59,33.7,.15Z"/>
                <path class="cls-11" d="M565.33,345.7s-.08,0-.13-.02c-.29-.07-.47-.36-.4-.65,2.75-11.51,3.85-28.01,4.73-41.26,.87-13.07,1.38-19.94,2.74-21.14,1.5-1.32,5.94-.85,13.29-.07,9.12,.97,22.89,2.43,37.74,.73,7.38-.85,13.03-3.74,16.81-8.59,6.77-8.7,5.22-20.92,5.2-21.05-.04-.3,.17-.57,.46-.61,.3-.04,.57,.17,.61,.46,.07,.52,1.64,12.78-5.42,21.85-3.96,5.1-9.87,8.13-17.55,9.01-14.97,1.72-28.82,.24-37.98-.73-6.33-.67-11.32-1.2-12.46-.2-.26,.23-.77,1.35-1.3,6.31-.39,3.66-.71,8.5-1.08,14.09-.88,13.3-1.98,29.84-4.76,41.45-.06,.25-.28,.42-.53,.42Z"/>
                <path class="cls-11" d="M548.33,347.33c-.28,0-.52-.22-.54-.51-.02-.3,.21-.56,.51-.57l20.4-1.23c.3-.02,.56,.21,.57,.51,.02,.3-.21,.56-.51,.57l-20.4,1.23s-.02,0-.03,0Z"/>
                <g>
                  <path class="cls-22" d="M621.94,170.33l-13.87,50.71,4.94-5.7c-1.83,.97-3.95,1.72-6.3,2.25-2.34,.53-4.9,.83-7.57,.97-2.67,.14-5.46,.11-8.31,0-2.85-.12-5.76-.33-8.72-.58h-.02c-4.36-.37-8.2,2.86-8.57,7.22-.35,4.16,2.6,7.84,6.65,8.5,3.05,.49,6.15,.95,9.33,1.31,3.18,.37,6.44,.64,9.82,.72,3.38,.07,6.87-.05,10.49-.58,3.61-.52,7.35-1.47,11.01-3.04,2.34-1.01,4.01-2.93,4.77-5.17l.18-.53,16.64-49.87c1.87-5.61-1.16-11.67-6.76-13.54-5.61-1.87-11.67,1.16-13.54,6.76-.06,.18-.12,.39-.17,.56Z"/>
                  <g>
                    <path class="cls-8" d="M617.31,219.41c.14,0,.28-.07,.36-.21,.11-.2,.04-.45-.15-.56-.13-.07-3.16-1.79-6.33-2.03-.23-.02-.42,.15-.44,.38-.02,.23,.15,.42,.38,.44,2.98,.23,5.96,1.91,5.99,1.93,.06,.04,.13,.05,.2,.05Z"/>
                    <path class="cls-8" d="M612.27,217.58c.07,0,.15-.02,.21-.06,1.91-1.16,4.23-1.34,4.25-1.34,.23-.02,.4-.21,.38-.44-.02-.23-.21-.39-.44-.38-.1,0-2.54,.19-4.62,1.45-.19,.12-.26,.37-.14,.56,.08,.13,.21,.2,.35,.2Z"/>
                  </g>
                  <path class="cls-20" d="M640.38,197.22l-9.17-.57-.67-.04-6.34-.39-.77-.05-8.15-.51,.33-2.84,.09-.68,.78-6.67,.08-.67,1.47-12.57c.24-2.94,.94-6.48,2.27-9.12,1.96-3.9,7.36-7.98,14.1-6.07,1.21,.34,2.25,.9,3.16,1.63,.19,.14,.37,.3,.54,.46,1.69,1.59,2.85,3.85,3.61,6.51,.06,.21,.12,.42,.16,.63,1.36,5.28,1.24,11.97,.61,18.05-.02,.24-.04,.47-.07,.71-.32,2.89-.75,5.63-1.17,7.98-.06,.37-.13,.72-.2,1.07-.22,1.17-.43,2.21-.63,3.12Z"/>
                  <path class="cls-14" d="M631.83,156.6c.82,.06,1.68,.21,2.55,.45,1.21,.34,2.25,.9,3.16,1.63,.19,.14,.37,.3,.54,.46,1.69,1.59,2.85,3.85,3.61,6.51,.06,.21,.12,.42,.16,.63,1.36,5.28,1.24,11.97,.61,18.05-.02,.24-.04,.47-.07,.71-.32,2.89-.75,5.63-1.17,7.98-.06,.37-.13,.72-.2,1.07-.22,1.17-.43,2.21-.63,3.12l-9.17-.57-.67-.04-6.34-.39"/>
                  <path class="cls-26" d="M616.67,184.94c1.42-8.66,2.3-16.92,2.31-17.01,.02-.18-.11-.34-.29-.35-.18-.02-.34,.11-.35,.29,0,.09-.88,8.3-2.3,16.92-.02,.35,.49,.55,.63,.16Z"/>
                  <path class="cls-26" d="M617.83,174.3c-.06-.02-.11-.05-.15-.1l-2.47-3.11c-.11-.14-.09-.34,.05-.45,.14-.11,.34-.09,.45,.05l2.47,3.11c.11,.14,.09,.34-.05,.45-.09,.07-.2,.09-.3,.05Z"/>
                </g>
                <path class="cls-11" d="M599.73,182.52c-1.13,0-2.17-.41-3.09-1.23-5.28-4.65-5.26-21.55-5.25-22.27,0-.34,.28-.61,.61-.61h0c.34,0,.61,.28,.61,.62,0,.17-.02,17.06,4.84,21.34,.83,.73,1.73,1.02,2.76,.89,6.5-.86,9.45-19.77,10.05-26.99,.03-.34,.32-.59,.66-.56,.34,.03,.59,.32,.56,.66,0,.07-.56,6.73-2.15,13.45-2.18,9.23-5.19,14.16-8.96,14.66-.22,.03-.43,.04-.64,.04Z"/>
              </g>
              <path class="cls-20" d="M577.79,170.23s-8.53,5.36-7.49,27.71l18.69,3.59-11.2-31.3Z"/>
            </g>
          </g>
          <g>
            <g>
              <path class="cls-26" d="M492.95,173.45l10.88,46.02,.29,1.21,.73,3.1c.32,1.34,1.51,2.29,2.89,2.29h73.31c1.92,0,3.34-1.79,2.89-3.66l-11.9-50.33c-.32-1.34-1.51-2.29-2.89-2.29h-73.31c-1.92,0-3.34,1.79-2.89,3.65Z"/>
              <polygon class="cls-11" points="503.84 219.48 504.12 220.69 580.25 220.69 580.25 219.48 503.84 219.48"/>
              <g>
                <path class="cls-25" d="M551.52,181.19c.61,3.26,3.75,5.91,7.01,5.91s5.41-2.64,4.8-5.91c-.61-3.26-3.75-5.91-7.01-5.91s-5.41,2.64-4.8,5.91Z"/>
                <g>
                  <path class="cls-26" d="M558.19,180.06c.12,.65,.45,1.18,.73,1.18s.41-.53,.29-1.18c-.12-.65-.45-1.18-.73-1.18s-.41,.53-.29,1.18Z"/>
                  <path class="cls-26" d="M555.11,180.06c.12,.65,.45,1.18,.73,1.18s.41-.53,.29-1.18c-.12-.65-.45-1.18-.73-1.18s-.41,.53-.29,1.18Z"/>
                </g>
                <path class="cls-26" d="M557.91,184.06c2.54,0,2.65-2.54,2.65-2.56,0-.14-.11-.28-.25-.31-.14-.03-.26,.06-.27,.2,0,.09-.1,2.16-2.22,2.16s-2.99-2.07-3.03-2.16c-.06-.14-.21-.23-.34-.2-.13,.03-.19,.17-.14,.31,.01,.03,1.07,2.56,3.61,2.56Z"/>
              </g>
              <path class="cls-20" d="M517.63,208.76c-.06,3.06-5.24,6.88-5.24,6.88,0,0-6.01-3.83-6.74-6.88-.79-3.31,2.99-4.33,5.79-1.83,2.26-2.5,6.26-1.48,6.19,1.83Z"/>
              <path class="cls-11" d="M528.58,199.9c.35,3.17,3.2,5.74,6.37,5.74s5.45-2.57,5.1-5.74c-.35-3.17-3.2-5.74-6.37-5.74s-5.45,2.57-5.1,5.74Z"/>
              <path class="cls-26" d="M566.26,169.8l12.67,56.28h2.13c1.92,0,3.33-1.79,2.89-3.66l-11.9-50.33c-.32-1.34-1.51-2.29-2.89-2.29h-2.9Z"/>
              <polygon class="cls-11" points="545.02 226.07 547.24 238.58 539.9 238.58 537.67 226.07 545.02 226.07"/>
              <path class="cls-11" d="M558.24,236.43l-1.5-2.11c-.54-.75-1.41-1.2-2.33-1.2h-20.14c-1.07,0-2.04,.59-2.54,1.54l-1.01,1.94c-.47,.91,.18,1.99,1.21,1.99h25.21c1.11,0,1.75-1.25,1.11-2.15Z"/>
            </g>
            <path class="cls-11" d="M600.2,238.58h-60.5l-.66-2.28c-.41-1.44,.66-2.87,2.16-2.87h55.82c1,0,1.88,.66,2.16,1.63l1.01,3.52Z"/>
          </g>
        </g>
        <g>
          <g>
            <g>
              <rect class="cls-26" x="445.73" y="186.55" width="43.35" height="111.26" rx="21.67" ry="21.67" transform="translate(934.8 484.36) rotate(-180)"/>
              <path class="cls-26" d="M405.46,297.81h58.77c13.43,0,24.32-10.89,24.32-24.32v-5.81h-83.09c-8.32,0-15.07,6.75-15.07,15.07h0c0,8.32,6.74,15.07,15.07,15.07Z"/>
              <g>
                <path class="cls-26" d="M439.54,325.23h0c2.52,0,4.57-2.04,4.57-4.57v-27.89h-9.13v27.89c0,2.52,2.04,4.57,4.57,4.57Z"/>
                <path class="cls-26" d="M412.44,362.28v5.8h4.2v-2.62c0-.74,.6-1.34,1.34-1.34h17.99c.62,0,1.12,.5,1.12,1.12v2.83h4.89v-2.83c0-.62,.5-1.12,1.12-1.12h17.85c.74,0,1.34,.6,1.34,1.34v2.62h4.2v-5.8c0-1.3-1.06-2.36-2.36-2.36h-22.16v-74.72h-4.89v74.72h-22.29c-1.3,0-2.36,1.06-2.36,2.36Z"/>
              </g>
              <g>
                <path class="cls-26" d="M458.09,371.83c0,3.45,2.8,6.25,6.25,6.25s6.25-2.8,6.25-6.25-2.8-6.25-6.25-6.25-6.25,2.8-6.25,6.25Z"/>
                <path class="cls-26" d="M464.34,375.41c1.98,0,3.58-1.61,3.58-3.58s-1.61-3.58-3.58-3.58-3.58,1.61-3.58,3.58,1.61,3.58,3.58,3.58Z"/>
              </g>
              <g>
                <path class="cls-26" d="M433.22,371.83c0,3.45,2.8,6.25,6.25,6.25s6.25-2.8,6.25-6.25-2.8-6.25-6.25-6.25-6.25,2.8-6.25,6.25Z"/>
                <path class="cls-26" d="M439.47,375.41c1.98,0,3.58-1.61,3.58-3.58s-1.61-3.58-3.58-3.58-3.58,1.61-3.58,3.58,1.61,3.58,3.58,3.58Z"/>
              </g>
              <g>
                <path class="cls-26" d="M408.26,371.83c0,3.45,2.8,6.25,6.25,6.25s6.25-2.8,6.25-6.25-2.8-6.25-6.25-6.25-6.25,2.8-6.25,6.25Z"/>
                <path class="cls-26" d="M414.51,375.41c1.98,0,3.58-1.61,3.58-3.58s-1.61-3.58-3.58-3.58-3.58,1.61-3.58,3.58,1.61,3.58,3.58,3.58Z"/>
              </g>
            </g>
            <g>
              <polygon class="cls-22" points="344.31 361.03 355.02 361.03 357.09 348.46 358.22 341.58 344.9 341.58 344.69 348.46 344.31 361.03"/>
              <g>
                <g>
                  <path class="cls-23" d="M343.89,355.78l13.07,.42s5.62-38.48,6.8-47.93c1.18-9.45,1.79-31.85,1.79-31.85,0,0,12.1,3.93,37.43,2.45,56.12-3.28,34.84-44.51,34.84-44.51-1.9,2.62-13.51,.8-21.45,2.05-24.37,2.34-45.5,11.9-58.18,17.37-3.05,1.32-5.77,2.71-8.15,4.18-3.06,1.88-4.97,7.6-6.12,15.12-3.47,22.6-.03,82.69-.03,82.69Z"/>
                  <path class="cls-11" d="M352.19,356.46c.25,0,.48-.18,.53-.44,2.19-10.84,7.92-54.33,8.52-65.18,.49-8.99,.95-17.48,2.11-18.5,.94-.83,4.82-.18,9.74,.63,9.78,1.62,24.56,4.08,40.86,.28,8.88-2.07,15.41-6.38,19.4-12.82,6.89-11.11,3.75-24.88,3.72-25.01-.07-.29-.36-.47-.65-.4-.29,.07-.47,.36-.4,.65,.03,.13,3.07,13.48-3.59,24.2-3.84,6.18-10.13,10.33-18.72,12.33-16.09,3.74-30.74,1.31-40.44-.3-5.81-.96-9.31-1.55-10.63-.38-1.43,1.26-1.83,7.47-2.47,19.26-.59,10.81-6.32,54.26-8.5,65.02-.06,.29,.13,.58,.42,.64,.04,0,.07,.01,.11,.01Z"/>
                </g>
                <g>
                  <path class="cls-29" d="M317.86,377.96h40.53c.3-.55,.47-1.32,.53-2.25,.25-3.43-.84-8.9-1.37-12.35-.07-.4-.12-.78-.16-1.12-.07-.58-.12-1.06-.12-1.41,0-2.82-2.49-2.33-2.49-2.33-4.1,4.02-8.75-2.01-11.46-.03,0,0-.11,.08-.36,.27-.23,.18-.57,.46-1.05,.86-.69,.58-1.66,1.42-2.97,2.6-3.22,2.9-8.69,4.81-13.35,6.75-.59,.25-1.15,.5-1.66,.74-.39,.19-.75,.38-1.1,.56-3.81,2.06-5.02,4.02-5.3,5.45-.26,1.37,.33,2.25,.33,2.25Z"/>
                  <path class="cls-23" d="M322.82,370.26c1.04,.83,3.37,2.49,5.23,2.49,.08,0,.16,0,.24,0,1.31-.11,6.15-2.48,10.08-4.64,2.25-1.24,4.31-2.46,5.79-3.43,2.43-1.6,2.85-2.21,2.94-2.63,.35-1.6-2.29-2.71-4.14-3.29-.23,.18-.57,.46-1.05,.86,2.3,.63,4.2,1.61,4.11,2.17-.23,.47-2.62,2.3-8.36,5.44-4.38,2.39-8.53,4.33-9.45,4.41-1.25,.1-3.08-1.03-4.28-1.93-.39,.19-.75,.38-1.1,.56Z"/>
                  <path class="cls-23" d="M317.86,377.96h40.53c.3-.55,.47-1.32,.53-2.25h-41.4c-.26,1.37,.33,2.25,.33,2.25Z"/>
                  <path class="cls-23" d="M354.26,377.96h1.2c-1.2-1.37-2.33-3.48-2.18-6.49,.2-4.01,2.6-6.7,4.27-8.11-.07-.4-.12-.78-.16-1.12-1.8,1.38-4.83,4.39-5.07,9.18-.14,2.88,.8,5.02,1.94,6.54Z"/>
                  <path class="cls-11" d="M339.62,364.59c.3,0,.57-.2,.65-.51,.09-.36-.13-.72-.49-.81l-2.53-.63c-.36-.09-.72,.13-.81,.49-.09,.36,.13,.72,.49,.81l2.53,.63c.05,.01,.11,.02,.16,.02Z"/>
                  <path class="cls-11" d="M342.13,362.48c.3,0,.57-.2,.65-.51,.09-.36-.13-.72-.49-.81l-2.53-.63c-.36-.09-.72,.13-.81,.49-.09,.36,.13,.72,.49,.81l2.53,.63c.05,.01,.11,.02,.16,.02Z"/>
                  <path class="cls-11" d="M337.09,366.06c.3,0,.57-.2,.65-.51,.09-.36-.13-.72-.49-.81l-2.53-.63c-.36-.09-.72,.13-.81,.49-.09,.36,.13,.72,.49,.81l2.53,.63c.05,.01,.11,.02,.16,.02Z"/>
                  <path class="cls-11" d="M334.55,367.47c.3,0,.57-.2,.65-.51,.09-.36-.13-.72-.49-.81l-2.53-.63c-.36-.09-.72,.13-.81,.49-.09,.36,.13,.72,.49,.81l2.53,.63c.05,.01,.11,.02,.16,.02Z"/>
                  <path class="cls-11" d="M331.79,368.78c.3,0,.57-.2,.65-.51,.09-.36-.13-.72-.49-.81l-2.53-.63c-.36-.09-.72,.13-.81,.49-.09,.36,.13,.72,.49,.81l2.53,.63c.05,.01,.11,.02,.16,.02Z"/>
                  <path class="cls-11" d="M328.8,369.9c.3,0,.57-.2,.65-.51,.09-.36-.13-.72-.49-.81l-2.53-.63c-.36-.09-.72,.13-.81,.49-.09,.36,.13,.72,.49,.81l2.53,.63c.05,.01,.11,.02,.16,.02Z"/>
                </g>
              </g>
              <g>
                <polygon class="cls-22" points="370.74 361.08 381.46 361.08 383.52 348.51 384.65 341.63 371.34 341.63 371.12 348.51 370.74 361.08"/>
                <g>
                  <path class="cls-29" d="M344.29,378.01h40.53c.3-.55,.47-1.32,.53-2.25,.25-3.43-.84-8.9-1.37-12.35-.07-.4-.12-.78-.16-1.12-.07-.58-.12-1.06-.12-1.41,0-2.81-2.49-2.33-2.49-2.33-4.1,4.02-8.75-2.01-11.46-.03,0,0-.11,.08-.36,.27-.23,.18-.57,.46-1.05,.86-.69,.58-1.66,1.42-2.97,2.6-3.22,2.9-8.69,4.81-13.35,6.75-.59,.25-1.15,.5-1.66,.74-.39,.19-.75,.38-1.1,.56-3.81,2.06-5.02,4.02-5.3,5.45-.26,1.37,.33,2.25,.33,2.25Z"/>
                  <path class="cls-23" d="M349.26,370.31c1.04,.83,3.37,2.49,5.23,2.49,.08,0,.16,0,.24,0,1.32-.11,6.15-2.48,10.08-4.64,2.25-1.24,4.31-2.46,5.79-3.43,2.43-1.6,2.85-2.21,2.94-2.63,.35-1.6-2.29-2.71-4.14-3.29-.23,.18-.57,.46-1.05,.86,2.3,.63,4.2,1.61,4.11,2.17-.23,.47-2.62,2.3-8.36,5.44-4.38,2.39-8.53,4.33-9.45,4.41-1.25,.1-3.08-1.03-4.28-1.93-.39,.19-.75,.38-1.1,.56Z"/>
                  <path class="cls-23" d="M344.29,378.01h40.53c.3-.55,.47-1.32,.53-2.25h-41.4c-.26,1.37,.33,2.25,.33,2.25Z"/>
                  <path class="cls-23" d="M380.69,378.01h1.2c-1.2-1.37-2.33-3.48-2.18-6.49,.2-4.01,2.6-6.7,4.27-8.11-.07-.4-.12-.78-.16-1.12-1.8,1.38-4.83,4.39-5.07,9.18-.14,2.88,.8,5.02,1.94,6.54Z"/>
                  <path class="cls-11" d="M366.05,364.64c.3,0,.57-.2,.65-.51,.09-.36-.13-.72-.49-.81l-2.53-.63c-.36-.09-.72,.13-.81,.49-.09,.36,.13,.72,.49,.81l2.53,.63c.05,.01,.11,.02,.16,.02Z"/>
                  <path class="cls-11" d="M368.57,362.53c.3,0,.57-.2,.65-.51,.09-.36-.13-.72-.49-.81l-2.53-.63c-.36-.09-.72,.13-.81,.49-.09,.36,.13,.72,.49,.81l2.53,.63c.05,.01,.11,.02,.16,.02Z"/>
                  <path class="cls-11" d="M363.52,366.11c.3,0,.57-.2,.65-.51,.09-.36-.13-.72-.49-.81l-2.53-.63c-.36-.09-.72,.13-.81,.49-.09,.36,.13,.72,.49,.81l2.53,.63c.05,.01,.11,.02,.16,.02Z"/>
                  <path class="cls-11" d="M360.99,367.52c.3,0,.57-.2,.65-.51,.09-.36-.13-.72-.49-.81l-2.53-.63c-.36-.09-.72,.13-.81,.49-.09,.36,.13,.72,.49,.81l2.53,.63c.05,.01,.11,.02,.16,.02Z"/>
                  <path class="cls-11" d="M358.23,368.83c.3,0,.57-.2,.65-.51,.09-.36-.13-.72-.49-.81l-2.53-.63c-.36-.09-.72,.13-.81,.49-.09,.36,.13,.72,.49,.81l2.53,.63c.05,.01,.11,.02,.16,.02Z"/>
                  <path class="cls-11" d="M355.23,369.95c.3,0,.57-.2,.65-.51,.09-.36-.13-.72-.49-.81l-2.53-.63c-.36-.09-.72,.13-.81,.49-.09,.36,.13,.72,.49,.81l2.53,.63c.05,.01,.11,.02,.16,.02Z"/>
                </g>
              </g>
              <g>
                <path class="cls-23" d="M369.63,355.91l15.02,1.04s4.37-39.17,5.55-48.62c1.18-9.45,1.79-31.85,1.79-31.85,0,0,12.1,3.93,37.43,2.45,56.12-3.28,34.84-44.51,34.84-44.51-1.9,2.62-16.12,6.23-24.06,7.48-24.37,2.34-42.89,6.48-55.57,11.95-3.05,1.32-5.77,2.71-8.15,4.18-3.06,1.88-4.97,7.6-6.12,15.12-3.46,22.6-.73,82.77-.73,82.77Z"/>
                <path class="cls-18" d="M464.26,234.42c-1.9,2.62-16.12,6.23-24.06,7.48-24.37,2.34-42.89,6.48-55.57,11.95-3.05,1.32-5.77,2.71-8.15,4.18-3.06,1.88-4.97,7.6-6.12,15.12-3.46,22.6-.73,82.77-.73,82.77l15.02,1.04"/>
                <path class="cls-11" d="M379.62,355.51c.25,0,.48-.18,.53-.44,2.19-10.84,6.92-53.33,7.52-64.18,.49-8.99,.95-17.48,2.11-18.5,.94-.83,4.82-.18,9.74,.63,9.78,1.62,24.56,4.08,40.86,.28,8.88-2.07,15.41-6.38,19.4-12.82,6.89-11.11,3.75-24.88,3.72-25.01-.07-.29-.36-.47-.65-.4-.29,.07-.47,.36-.4,.65,.03,.13,3.07,13.48-3.59,24.2-3.84,6.18-10.13,10.33-18.72,12.33-16.09,3.74-30.74,1.31-40.44-.3-5.81-.96-9.31-1.55-10.63-.38-1.43,1.26-1.83,7.47-2.47,19.26-.59,10.81-5.32,53.26-7.5,64.02-.06,.29,.13,.58,.43,.64,.04,0,.07,.01,.11,.01Z"/>
              </g>
              <path class="cls-26" d="M461.82,210.44c-18.64-.9-35.34-6.84-46.13-4.79-10.8,2.05-10.62-25.85,.21-34.15,8.06-6.18-3.83-18.5-3.73-28.45-.72-1.43-2.57-11.44,5-18.85,8.23-8.06,16.67-8.38,25.17-4.21,5.58,2,11,7.42,12.66,21.11,2.87,23.58,12.38,19.98,26.78,39.45,8.41,11.38-1.31,30.8-19.95,29.9Z"/>
              <g>
                <g>
                  <path class="cls-10" d="M415.3,168.57s-21.14,28.68-25.96,42.96c-4.82,14.28,6.88,24.43,6.88,24.43l10.87,4.08s11.17-50.44,8.21-71.47Z"/>
                  <path class="cls-11" d="M417.16,248.9c9.24,3.06,31.81,11.09,41.61,7.84,.41-.14,.8-.29,1.17-.47,1.07-.52,1.93-1.22,2.53-2.13,3.84-5.85,7.66-30.4,5.94-44.84-.21-1.8-.32-3.76-.35-5.82-.05-3.03,.05-6.26,.18-9.52,.48-12.26,2.41-20.72-2.83-23.7-4.71-2.67-10.66-4.76-14.46-5.67-2.35-.56-6.2-1.74-8.9-1.69l-11.69,2.12s-10.09,1.68-12.42,3.4c-2.33,1.72-3.52,9.28-7.72,16.21-4.2,6.93-5.12,13.88-1.1,21.48,3.49,6.61,2.88,4.11,3.34,14.96,.56,13.3-13.34,21.84,4.7,27.82Z"/>
                  <path class="cls-20" d="M448.19,186.58s-12.67-3.28-28.83-.26l-.39,11.17s17.77-1.98,28.97,.87l.25-11.79Z"/>
                  <g class="cls-24">
                    <path class="cls-11" d="M453.25,233.07s.09-.08,.13-.14c.14-.23,.07-.54-.17-.68-9-5.45-17.63-7.37-23.29-8.02-6.14-.71-10.1-.14-10.27-.11-.27,.04-.46,.29-.41,.56,.04,.27,.29,.46,.56,.42,.04,0,4.02-.58,10.05,.12,5.55,.64,14.02,2.54,22.86,7.88,.18,.11,.39,.09,.55-.03Z"/>
                  </g>
                  <path class="cls-10" d="M441.49,253.34c8.32-2.63,15.84-7.94,20.97-12.67,.41-.37,.8-.75,1.17-1.11,2.66-2.58,4.54-1.26,5.35-2.74,3.11-5.69,1.34-28.01,0-36.2-1.34-8.19,4.31-23.21,1.27-28.58-3.04-5.37-13.53-7.24-13.53-7.24,0,0,1.48-1.73-1.33-3.71-2.82-1.98-10.31-1.16-10.31-1.16-.36,35.47-5.38,68.42-3.6,93.42Z"/>
                  <path class="cls-11" d="M449.66,243.17c.22,0,.42-.16,.46-.39,3.78-24.61,.04-70.89,0-71.35-.02-.26-.24-.44-.5-.42-.26,.02-.45,.24-.42,.5,.04,.46,3.77,46.64,0,71.13-.04,.25,.13,.49,.39,.53,.02,0,.05,0,.07,0Z"/>
                  <path class="cls-2" d="M442.05,246.86c.22,0,.42-.16,.46-.38,4.95-28.26,5.34-77.02,5.35-77.51,0-.26-.2-.47-.46-.47h0c-.25,0-.46,.21-.46,.46,0,.49-.4,49.17-5.33,77.36-.04,.25,.12,.49,.38,.54,.03,0,.05,0,.08,0Z"/>
                  <path class="cls-2" d="M450.27,168.69s.08,0,.12-.02c3.92-1.04,6.32-3.36,6.42-3.46,.18-.18,.19-.47,0-.66-.18-.18-.47-.19-.66,0h0s-2.34,2.24-6.01,3.22c-.25,.07-.39,.32-.33,.57,.06,.21,.24,.34,.45,.34Z"/>
                  <path class="cls-10" d="M405.46,237.86s2.97,9.98,14,14.74c1.37-27.06,4.48-57.96,8.48-90.83,0,0-4.22-.74-5.98,1.67-.76,1.04-.92,2.8-.92,2.8,0,0-2.15,.42-4.52,1.52-2.36,1.1-2.09,2.61-2.65,6.44-.56,3.83-6.48,9.77-8.41,17.81-1.93,8.04,3.18,13.16,4.78,19.91,1.6,6.74-4.78,25.95-4.78,25.95Z"/>
                  <path class="cls-11" d="M414.93,242.04c.25,0,.46-.2,.46-.45,1.07-36.81,7.79-69.7,7.86-70.03,.05-.25-.11-.5-.36-.55-.25-.05-.5,.11-.55,.36-.07,.33-6.81,33.3-7.88,70.19,0,.26,.19,.47,.45,.48,0,0,0,0,.01,0Z"/>
                  <path class="cls-2" d="M425.09,169.71c.22,0,.42-.16,.46-.39,.04-.25-.13-.49-.38-.53-.03,0-3-.54-3.68-2.7-.08-.24-.34-.38-.58-.3-.24,.08-.38,.34-.3,.58,.85,2.7,4.26,3.31,4.41,3.33,.03,0,.05,0,.08,0Z"/>
                  <path class="cls-2" d="M416.01,242.04c.23,0,.43-.17,.46-.41,3.26-27.14,8.42-70.51,8.47-70.95,.03-.25-.15-.48-.41-.52-.25-.03-.48,.15-.52,.41-.05,.43-5.21,43.81-8.47,70.94-.03,.25,.15,.49,.41,.52,.02,0,.04,0,.06,0Z"/>
                </g>
                <g>
                  <path class="cls-10" d="M443.69,228.3l1.04,14.91s17.73-2.53,26.43-4.75c2.53-.65,5.38-1.48,7.98-2.86,4.8-2.55,8.79-7,8.49-15.66-.09-2.78-.63-6-1.72-9.73-6.34-21.65-16.94-39.83-16.94-39.83-13.65,5.84-12.51,15.57-12.51,15.57,3.9,10.39,12.51,32.51,12.51,32.51-5,6.1-25.3,9.85-25.3,9.85Z"/>
                  <path class="cls-2" d="M468.99,218.91c.08,0,.17-.02,.24-.07,1.51-.93,5.62-1.9,5.66-1.91,.25-.06,.4-.31,.35-.56s-.31-.4-.56-.35c-.15,.03-3.02,.71-4.93,1.52,.28-.62,.73-1.28,1.36-2,.17-.19,.15-.49-.04-.65-.19-.17-.49-.15-.65,.04-1.09,1.24-1.71,2.37-1.89,3.44-.03,.18,.05,.36,.2,.46,.08,.05,.17,.08,.26,.08Z"/>
                  <path class="cls-2" d="M454.84,226.01s.08,0,.12-.01c8.78-2.26,14.12-7,14.34-7.21,.16-.14,.2-.37,.1-.55-6.26-12.31-10.23-22.09-12.47-30.77-.06-.25-.32-.4-.56-.33-.25,.06-.4,.32-.33,.57,2.24,8.67,6.18,18.41,12.38,30.63-1.19,.98-6.21,4.84-13.68,6.77-.25,.06-.4,.32-.33,.56,.05,.21,.24,.35,.45,.35Z"/>
                  <g class="cls-9">
                    <path class="cls-10" d="M458.36,194.37c.1,0,.2-.03,.29-.1,.2-.16,.23-.45,.07-.65l-3.25-4.09c-.16-.2-.45-.23-.65-.07-.2,.16-.23,.45-.07,.65l3.25,4.09c.09,.11,.23,.17,.36,.17Z"/>
                  </g>
                </g>
                <path class="cls-26" d="M443.18,156.79l-15.75,2.25c-10.23-1.02-13.49-5.09-15.16-13.69-.84-4.32-.28-8.15,.54-10.98,.22-3.23,.95-6.03,2.48-7.87,6.91-8.33,13-8.01,13-8.01,3.09-1.42,13.31-2.39,20.05,5.79,0,0,0,0,0,0,.21,.18,4.32,4.54,5.27,13.68,.9,8.71-4.91,19.84-10.43,18.82Z"/>
                <g>
                  <path class="cls-26" d="M441.94,153.51s10.05-5.62,8.07-17.32c-1.98-11.7-9.68-18.74-21.49-15.35,0,0,1.15,33.82,13.42,32.67Z"/>
                  <path class="cls-26" d="M414,132s-1.03,10.04,.81,11.5c1.83,1.45,3.62-2.52,3.62-2.52,0,0-2.5-8.87-4.43-8.98Z"/>
                  <g>
                    <path class="cls-22" d="M427.37,158.9l1.24,8.3s4.25,7.25,16.02-3.38c-1.34-3.38-2.56-8.46-2.03-11.79,0,0-.86,.79-2.34,1.73-.3,.19-.63,.4-.97,.61-3.06,1.86-7.73,4.24-11.91,4.53Z"/>
                    <g>
                      <path class="cls-22" d="M415.71,142.27c.13,.88,.25,1.71,.38,2.51,.06,.35,.11,.69,.16,1.02,.07,.49,.15,.95,.22,1.41,.32,1.98,.64,3.66,.99,5.03,.64,2.6,1.37,4.2,2.41,4.99,8.05,6.18,22.25-4.73,22.71-5.09,0,0,.02,0,.02,0,.04-.67,.07-1.32,.1-1.97,.19-5.52-.49-10.51-1.75-15.17-.48-5.03-4.15-9.24-9.1-10.26-5.13-1.04-9.18,1.75-11.69,2.95-3.78,1.81-5.51,7.3-4.45,14.59Z"/>
                      <path class="cls-15" d="M427.43,159.04c7.22-.79,14.81-6.63,15.14-6.89"/>
                    </g>
                    <path class="cls-26" d="M423.28,151.45c4.5,0,6.3-4.31,6.32-4.36,.08-.21-.02-.45-.23-.53-.21-.08-.45,.02-.53,.23h0c-.08,.19-1.97,4.66-6.88,3.72-.22-.04-.44,.1-.48,.32-.04,.22,.1,.44,.32,.48,.52,.1,1.01,.15,1.47,.15Z"/>
                    <path class="cls-26" d="M426.74,135.9c-1.16-.4-.92-2.11,.3-2.19,2.08-.13,5.43-.08,5.71,1.6,.41,2.45-3.48,1.43-5.93,.61-.02,0-.05-.02-.07-.02Z"/>
                    <path class="cls-26" d="M420.6,136.62c.9-.83,0-2.3-1.16-1.88-1.96,.72-5,2.11-4.58,3.76,.62,2.41,3.76-.09,5.68-1.83,.02-.02,.04-.03,.06-.05Z"/>
                    <g class="cls-6">
                      <path class="cls-22" d="M429.67,145.87c.27,1.8,1.88,3.06,3.59,2.81,1.72-.26,2.89-1.93,2.62-3.73-.27-1.81-1.88-3.06-3.59-2.81-1.72,.26-2.89,1.92-2.62,3.73Z"/>
                    </g>
                    <g class="cls-6">
                      <path class="cls-22" d="M416.24,145.8c.07,.49,.15,.95,.22,1.41,.32,1.98,.64,3.66,.99,5.03,1.45-.47,2.38-1.98,2.15-3.61-.25-1.72-1.74-2.95-3.35-2.83Z"/>
                    </g>
                    <g>
                      <path class="cls-26" d="M427.19,142.33c.14,.93,.67,1.62,1.19,1.54,.52-.08,.83-.89,.69-1.82-.14-.93-.67-1.62-1.19-1.54-.52,.08-.83,.89-.69,1.82Z"/>
                      <path class="cls-26" d="M418.02,143.7c.14,.93,.67,1.62,1.19,1.54,.52-.08,.83-.89,.69-1.82-.14-.93-.67-1.62-1.19-1.54-.52,.08-.83,.89-.69,1.82Z"/>
                    </g>
                    <path class="cls-26" d="M438.99,148.83c.06,.1,1.7,2.74,3.58,3.31,0,0,0,0,0,0,0,0,0-.01,0-.01,.05-.67,.08-1.33,.1-1.98-.07,0-1.88-.05-3.69-1.33Z"/>
                    <path class="cls-22" d="M439.73,142.14s2.97-5.53,6.27-2.02c2.72,2.89-.22,12.11-5.22,9.65l-1.05-7.62Z"/>
                    <path class="cls-26" d="M441.16,148.25c.19-.03,.34-.2,.33-.4-.15-3.83,2.81-5.62,2.94-5.69,.18-.11,.25-.34,.14-.53-.11-.18-.34-.25-.53-.14-.14,.08-3.49,2.08-3.32,6.39,0,.21,.19,.38,.4,.37,.01,0,.03,0,.04,0Z"/>
                    <path class="cls-26" d="M444.38,145.4c.11-.02,.21-.08,.28-.18,.11-.18,.05-.42-.14-.53-.17-.1-1.7-.98-2.8-.51-.2,.08-.29,.31-.21,.51,.08,.2,.31,.29,.51,.21,.63-.27,1.76,.26,2.11,.46,.08,.05,.17,.06,.25,.05Z"/>
                    <path class="cls-16" d="M422.46,142.16s.37,2.73,.01,4.21c-.08,.35,.24,.67,.59,.57l1.88-.51"/>
                  </g>
                  <path class="cls-26" d="M420.5,122.61c-3.42,1.54-6.12,4.4-7.32,7.95-.75,2.23-1.38,5.17,1.75,4.79,8.55-1.04,13.13-9.91,13.13-9.91,0,0,1.67,8.18,8.38,7.18,6.72-1,6.5-6.07,2.69-8.93-3.11-2.34-11.03-4.51-18.63-1.08Z"/>
                  <path class="cls-26" d="M436.18,131.69s3.82,4.1,2.45,8.52c-1.37,4.42-1.46,7.96-.03,10.33,0,0,.37-4.65,2.07-8.17,1.4-2.89,2.7-5.1,1.69-8.44-.69-2.29-2.37-4.49-6.18-2.24Z"/>
                </g>
              </g>
            </g>
          </g>
          <g>
            <path class="cls-26" d="M391.59,237.34h55.52c1.34,0,2.31-1.09,2.16-2.43l-3.79-34.3c-.15-1.34-1.35-2.43-2.69-2.43h-55.52c-1.34,0-2.31,1.09-2.16,2.43l3.79,34.3c.15,1.34,1.35,2.43,2.69,2.43Z"/>
            <path class="cls-11" d="M447.94,238.82s.04,0,.06,0c.26-.03,.44-.27,.41-.52l-4.61-36.74c-.03-.26-.27-.44-.52-.41-.26,.03-.44,.27-.41,.52l4.61,36.74c.03,.24,.23,.41,.46,.41Z"/>
            <path class="cls-11" d="M420.93,218.37c.21,2.76-1.82,5.13-4.53,5.3-2.72,.17-5.09-1.92-5.3-4.68-.21-2.75,1.82-5.13,4.53-5.3,2.72-.17,5.09,1.92,5.3,4.68Z"/>
            <path class="cls-26" d="M391.32,240.33h56.28c1.24,0,2.19-1.09,2.02-2.32l-.54-3.92h-60.41l.61,4.47c.14,1.01,1,1.77,2.02,1.77Z"/>
          </g>
        </g>
        <g>
          <g>
            <path class="cls-22" d="M200.07,69.31s-3.96,6.32-9.47,5.44c-4.45-.71-6.63-6.19-7.3-8.27-.16-.5-.24-.8-.24-.8,0,0-.31-.09-.76-.29-1.05-.46-2.83-1.46-3.02-3.06-.27-2.28,4.06-1.95,4.06-1.95,0,0-1.22-2.56-.2-3.62,1-1.04,3.73-.21,3.73-.21,0,0-2.05-3.01-.44-4.21,2.42-1.8,4.23,2.06,4.4,2.3-.1-.29-4.17-12.44-1.89-12.28,1.99,.14,6.04,10.15,7.11,12.88,.17,.43,.26,.68,.26,.68,0,0,.15-.04,.4-.09,1.21-.23,4.81-.71,6,1.6,1.45,2.79-2.65,11.86-2.65,11.86Z"/>
            <path class="cls-3" d="M200.59,60.71c-.07-.23-.32-.35-.54-.27-.99,.33-3.84,1.03-5.18,.3-.36-.2-.58-.48-.67-.87-.45-1.8,1.48-3.33,2.53-4.02-.25,.05-.4,.09-.4,.09,0,0-.09-.25-.26-.68-.79,.54-1.89,1.45-2.44,2.61-.11-.04-.23-.04-.35,.02,0,0,0,0-.01,0-.15,.08-.24,.25-.22,.43,.08,.56,.06,1.06-.08,1.38-.11,.26-.26,.32-.38,.34-.19,.03-.45,0-.75-.1-.51-.16-1.15-.47-1.79-.84-.29-.25-.54-.43-.66-.52-.19-.14-.46-.1-.6,.09-.09,.12-.1,.26-.06,.39,.03,.08,.08,.15,.15,.21,.65,.47,1.5,1.23,1.98,1.87,.24,.31,.38,.6,.37,.8,0,.05,0,.13-.17,.23-1.12,.66-3.89-.31-4.86-.74-.2-.09-.44-.01-.55,.18-.11,.19-.06,.43,.12,.56,1.11,.82,2.11,2.42,2.07,3.3-.02,.28-.14,.39-.24,.45-.77,.45-3.5-.09-5.04-.53-.08-.02-.16-.03-.24,0,.45,.2,.76,.29,.76,.29,0,0,.07,.3,.24,.8,.98,.23,2.47,.52,3.6,.46,.45-.02,.84-.11,1.12-.27,.41-.24,.63-.63,.66-1.15,.04-.79-.42-1.79-1.06-2.66,1.26,.36,2.87,.63,3.86,.06,.46-.27,.58-.65,.6-.93,0-.19-.03-.39-.11-.6-.08-.21-.21-.42-.35-.63,.29,.08,.56,.14,.8,.15,.11,0,.21,0,.31-.02,.31-.06,.56-.21,.76-.45,.19,.44,.51,.8,.96,1.04,.69,.38,1.62,.46,2.53,.41,1.64-.09,3.24-.62,3.34-.66,.22-.08,.35-.32,.27-.55Z"/>
            <path class="cls-3" d="M193.11,71.29c-.15,0-.3-.06-.38-.19-.13-.2-.08-.47,.12-.6,1.07-.7,1.69-1.62,1.85-2.72,.41-2.82-2.25-6-2.28-6.04-.15-.18-.13-.45,.05-.61,.18-.15,.45-.13,.61,.05,.12,.14,2.94,3.52,2.48,6.72-.2,1.35-.95,2.47-2.23,3.31-.07,.04-.14,.07-.21,.07Z"/>
          </g>
          <g>
            <g>
              <g>
                <polygon class="cls-22" points="261.45 329.9 255.97 334.51 262.32 344.49 267.8 339.88 261.45 329.9"/>
                <g>
                  <path class="cls-26" d="M261.77,378.47l-23.13-36.37c.32-.58,.92-1.17,1.72-1.76,2.93-2.18,8.46-4.33,11.87-5.81,.4-.17,.77-.34,1.1-.49,.56-.26,1.02-.49,1.33-.7,2.53-1.61,3.52,.9,3.52,.9-1.27,5.97,6.79,6.7,6.57,10.26,0,0-.08,1.53-.85,6.07-.76,4.54,.65,10.54,1.56,15.83,1.18,6.83-.1,9.79-1.47,11.08-1.08,1.02-2.21,.99-2.21,.99Z"/>
                  <path class="cls-11" d="M261.77,378.47l-23.13-36.37c.32-.58,.92-1.17,1.72-1.76l23.62,37.14c-1.08,1.02-2.21,.99-2.21,.99Z"/>
                  <path class="cls-11" d="M241,345.81l-.69-1.08c1.92,.29,4.45,.1,7.07-1.75,3.48-2.46,4.53-6.16,4.84-8.46,.4-.17,.77-.34,1.1-.49-.21,2.4-1.18,6.84-5.35,9.79-2.5,1.77-4.96,2.14-6.97,1.99Z"/>
                  <path class="cls-11" d="M261.35,351.32c-.17-.27-.14-.63,.09-.87,.27-.28,.72-.3,1-.02l2.01,1.91c.28,.27,.3,.72,.02,1-.27,.28-.72,.3-1,.02l-2.01-1.91s-.08-.09-.11-.13Z"/>
                  <path class="cls-11" d="M261.47,354.43c-.17-.27-.14-.63,.09-.87,.27-.28,.72-.3,1-.02l2.01,1.91c.28,.27,.29,.72,.02,1-.27,.28-.72,.3-1,.02l-2.01-1.91s-.08-.09-.11-.13Z"/>
                  <path class="cls-11" d="M261.65,357.51c-.17-.27-.14-.63,.09-.87,.27-.28,.72-.3,1-.02l2.01,1.91c.28,.27,.29,.72,.02,1-.27,.28-.72,.3-1,.02l-2.01-1.91s-.08-.09-.11-.13Z"/>
                  <path class="cls-11" d="M262.05,360.73c-.17-.27-.14-.63,.09-.87,.27-.28,.72-.3,1-.02l2.01,1.91c.28,.27,.3,.72,.02,1-.27,.28-.72,.3-1,.02l-2.01-1.91s-.08-.09-.11-.13Z"/>
                  <path class="cls-11" d="M262.76,364.05c-.17-.27-.14-.63,.09-.87,.27-.28,.72-.3,1-.02l2.01,1.91c.28,.27,.3,.72,.02,1-.27,.28-.72,.3-1,.02l-2.01-1.91s-.08-.09-.11-.13Z"/>
                </g>
                <path class="cls-20" d="M327.85,265.15c0,.08-.02,.16-.03,.24,0,0-.21,.4-.62,1.15-2.85,5.26-15.24,27.73-30.63,48.89-2.22,3.05-4.5,6.08-6.82,9.01-1.02,1.29-2.05,2.57-3.09,3.82-4.5,5.46-8.28,8.8-12.58,11.62-.46,.3-.92,.59-1.39,.88-.89,.55-1.82,1.08-2.78,1.62-.45,.25-.92,.5-1.39,.76,0,0-6.93-7.29-10.16-14.36,0,0,.9-1.47,2.35-3.86,.28-.47,.59-.97,.91-1.51,.98-1.62,2.12-3.52,3.37-5.59,5.59-9.33,13.11-22.14,15.92-28.09,2.06-4.35,4.5-9.17,7.23-13.92,.52-.9,1.05-1.8,1.59-2.7,.06-.11,.12-.21,.19-.31,3.72-6.14,7.88-11.97,12.24-16.27l-9.92-58.52-.62-3.67,21.93-7.74,1.25-.44,5.22-1.84s.42,1.92,1.07,5.23c.08,.4,.16,.82,.24,1.26,2.91,15.02,9.41,52.55,6.51,74.34Z"/>
                <path class="cls-28" d="M274.08,339.9c-.46,.3-.92,.59-1.39,.88l-8.49-11.24-.78-1.04-2.7-3.57c.28-.47,.59-.97,.91-1.51l2.64,3.5,.78,1.04,9.02,11.94Z"/>
                <path class="cls-28" d="M327.85,265.15c0,.08-.02,.16-.03,.24,0,0-.21,.4-.62,1.15-4.97-.93-8.79-3.39-9.02-3.54-.34-.22-.44-.68-.21-1.02,.22-.34,.68-.44,1.02-.21,.05,.04,3.95,2.54,8.86,3.38Z"/>
                <path class="cls-28" d="M307.9,258.59c-.11,.1-11.1,11.04-42.84,69.37-.28,.52-.57,1.05-.86,1.58l-.78-1.04c.29-.53,.58-1.06,.86-1.58,29.45-54.08,40.75-67.02,42.56-68.93-2.59-9.57-10.51-58.55-10.85-60.66-.05-.32,.17-.63,.49-.68,.32-.05,.63,.17,.68,.49,.08,.52,8.45,52.23,10.91,60.86,.06,.21,0,.44-.16,.59Z"/>
              </g>
              <g>
                <path class="cls-20" d="M255.51,169.98s-1.65,15.66,1.91,24.37c3.56,8.72,49.67,4.23,61.42-3.61,4.82-3.22-5.44-32.91-5.44-32.91l-57.89,12.15Z"/>
                <path class="cls-28" d="M321.34,190.82c-.7-.12-1.38-.3-2.04-.53-1.06-.36-2.07-.85-3.03-1.47-1-.64-1.9-1.39-2.71-2.21-5.08-5.13-6.58-12.88-6.65-13.26-.06-.32,.15-.63,.47-.69,.32-.06,.63,.15,.69,.47,.02,.09,1.57,8.15,6.74,13.03,.64,.61,1.34,1.17,2.1,1.66,.92,.59,1.88,1.05,2.9,1.38,.42,.14,.85,.25,1.29,.35,.08,.4,.16,.82,.24,1.26Z"/>
                <path class="cls-28" d="M292.89,195.19c.02,.31-.24,.58-.56,.6t0,0c-.33,.02-.6-.23-.62-.54-.1-2.14-.23-4.33-.37-6.52-.02-.39-.05-.77-.07-1.16-.47-7.15-1.06-14.18-1.5-19.14-.04-.4-.07-.79-.11-1.16-.1-1.09-.19-2.05-.27-2.87,.39-.06,.79-.12,1.17-.19,.08,.82,.17,1.79,.27,2.89,.04,.37,.07,.76,.11,1.16,.44,4.92,1.03,11.88,1.49,18.99,.03,.39,.05,.79,.08,1.18,.14,2.27,.27,4.54,.38,6.76Z"/>
                <path class="cls-28" d="M294.58,187.64c-.18,.09-1.01,.47-2.07,.79-.37,.11-.76,.21-1.17,.29-.37,.07-.75,.12-1.12,.15-.72,.04-1.41-.03-1.99-.31-.72-.34-1.19-.97-1.35-1.81-.43-2.21-1.33-11.32-1.94-17.77-.04-.4-.08-.78-.11-1.16-.1-1.03-.18-1.97-.26-2.77,.39-.05,.78-.09,1.18-.15,.07,.8,.16,1.75,.26,2.8,.03,.37,.07,.76,.11,1.16,.61,6.43,1.51,15.53,1.93,17.67,.09,.49,.32,.81,.71,1,.63,.3,1.57,.24,2.5,.03,.4-.09,.8-.2,1.17-.32,.68-.22,1.27-.47,1.62-.64,.29-.14,.65-.03,.79,.26,.14,.28,.02,.63-.27,.77Z"/>
              </g>
              <g>
                <polygon class="cls-22" points="274.8 350.72 275.97 360 287.81 360 288.5 350.24 274.8 350.72"/>
                <path class="cls-20" d="M289.75,189.88v159.31l-.17,2.52h-17.57c-.19-1.15-.61-3.01-1.17-5.4-.12-.52-.25-1.07-.38-1.64-2.29-9.74-6.21-26.35-6.9-40.79-.99-20.62-.71-47.34-.71-47.34-2.01-15.33-5.15-48.52-6.72-65.51-.04-.41-.07-.8-.11-1.18-.53-5.71-.85-9.3-.85-9.3,2.83-1.18,7.96-.37,13.42,1.18,.4,.11,.79,.22,1.19,.34,9.7,2.91,19.98,7.81,19.98,7.81Z"/>
                <path class="cls-28" d="M289.75,344.68v1.64h-18.91c-.12-.52-.25-1.07-.38-1.64h19.3Z"/>
                <path class="cls-28" d="M289.75,260.12v1.52c-2.06,.52-4.41,.69-6.61,.69-4.07,0-7.63-.58-7.88-.62-.4-.07-.67-.45-.6-.85,.07-.4,.44-.68,.85-.61,.09,.01,8.69,1.42,14.25-.14Z"/>
                <path class="cls-28" d="M273.78,346.32h-1.2c-.1-.51-.2-1.05-.31-1.64-1.55-8.25-4.39-23.68-5.87-33.69-2.06-13.98-1.09-52.74-1.06-54.25-1.56-13.33-4.74-58.99-4.78-59.45-.02-.33,.22-.61,.55-.63,.33-.02,.61,.22,.63,.55,.03,.46,3.22,46.19,4.78,59.44,0,.03,0,.06,0,.09-.01,.4-1.03,40.01,1.04,54.09,1.49,10.09,4.36,25.67,5.91,33.86,.11,.59,.21,1.13,.31,1.64Z"/>
                <g>
                  <g>
                    <path class="cls-26" d="M292.31,375.82c0,.11,0,.21,0,.31-.01,.47-.03,.9-.05,1.26-.05,.8-.11,1.3-.11,1.3h-26.67s-.13-1.03-.03-2.56c.17-2.72,1.08-7.03,4.76-9.87,5.04-3.9,3.09-3.08,4.13-4.86,.12-.2,1.02-3.22,1.12-3.42,.87-1.85,1.67-2.72,6.44-2.72,6.34,0,6.89,3.07,7.57,4.69,.28,.67,.66,2.08,1.05,3.76,.16,.67,.32,1.39,.48,2.13,.39,1.84,.76,3.76,1,5.29,.26,1.64,.32,3.33,.3,4.69Z"/>
                    <path class="cls-11" d="M292.31,375.82c0,.11,0,.21,0,.31-.01,.47-.03,.9-.05,1.26-1.3-.91-2.23-2.12-2.77-3.59-1.65-4.49,.89-9.89,.99-10.12l.05,.03c.16,.67,.32,1.39,.48,2.13-.6,1.84-1.29,4.92-.33,7.53,.35,.95,.9,1.77,1.63,2.45Z"/>
                    <path class="cls-11" d="M292.31,376.14c-.04,1.52-.16,2.56-.16,2.56h-26.67s-.13-1.03-.03-2.56h26.86Z"/>
                  </g>
                  <path class="cls-11" d="M282.79,363.57c-.06,0-.13,0-.19-.02-3.39-.88-6.16-.14-6.18-.13-.41,.11-.82-.13-.94-.53-.11-.4,.13-.82,.53-.94,.13-.04,3.19-.86,6.97,.12,.41,.1,.65,.52,.55,.93-.09,.34-.4,.57-.74,.57Z"/>
                  <path class="cls-11" d="M283.39,360.63c-.06,0-.13,0-.19-.02-3.39-.88-6.15-.14-6.18-.13-.41,.11-.82-.13-.94-.53-.11-.4,.13-.82,.53-.94,.13-.04,3.19-.86,6.97,.12,.41,.11,.65,.52,.55,.93-.09,.34-.4,.57-.74,.57Z"/>
                  <path class="cls-11" d="M281.65,365.98c-.06,0-.13,0-.19-.02-3.37-.87-6.16-.13-6.18-.13-.4,.11-.82-.13-.93-.53-.11-.4,.13-.82,.53-.93,.13-.04,3.19-.86,6.97,.12,.41,.11,.65,.52,.55,.93-.09,.34-.4,.57-.74,.57Z"/>
                  <path class="cls-11" d="M280.31,368.72c-.06,0-.13,0-.19-.02-3.37-.87-6.16-.13-6.18-.13-.4,.11-.82-.13-.93-.53-.11-.4,.13-.82,.53-.93,.13-.04,3.19-.86,6.97,.12,.41,.11,.65,.52,.55,.93-.09,.34-.4,.57-.74,.57Z"/>
                </g>
                <path class="cls-28" d="M273.03,173.36c-.05,.27-.86,4.47-3.27,8.72-1.42,2.5-3.39,5.01-6.09,6.75-2.27,1.46-4.8,2.2-7.56,2.21-.04-.4-.07-.8-.11-1.18,2.58,0,4.93-.67,7.03-2.02,2.41-1.55,4.21-3.81,5.54-6.1,2.45-4.22,3.28-8.52,3.29-8.59,.06-.32,.37-.54,.69-.48,.32,.06,.54,.37,.48,.69Z"/>
              </g>
            </g>
            <g>
              <g>
                <path class="cls-22" d="M360.22,91.45s2.21,7.12,7.77,7.68c4.48,.45,7.99-4.29,9.17-6.12,.28-.44,.43-.71,.43-.71,0,0,.33-.01,.81-.09,1.13-.17,3.11-.68,3.7-2.18,.84-2.14-3.43-2.92-3.43-2.92,0,0,1.83-2.16,1.12-3.45-.7-1.26-3.55-1.15-3.55-1.15,0,0,2.75-2.38,1.5-3.95-1.88-2.36-4.61,.91-4.84,1.1,.17-.25,7.21-10.96,4.97-11.39-1.96-.38-8.44,8.27-10.17,10.64-.28,.37-.43,.59-.43,.59,0,0-.13-.08-.37-.19-1.11-.54-4.46-1.91-6.21,.01-2.11,2.33-.47,12.14-.47,12.14Z"/>
                <path class="cls-3" d="M361.92,82.99c.13-.2,.4-.25,.6-.12,.87,.57,3.45,1.98,4.93,1.61,.4-.1,.68-.31,.87-.67,.89-1.62-.57-3.6-1.42-4.53,.23,.11,.37,.19,.37,.19,0,0,.15-.22,.43-.59,.63,.73,1.46,1.89,1.69,3.15,.12-.01,.24,.02,.33,.11,0,0,0,0,.01,0,.13,.12,.17,.31,.1,.47-.22,.52-.33,1.01-.28,1.36,.04,.28,.17,.37,.28,.42,.17,.08,.43,.11,.75,.1,.54-.02,1.23-.16,1.95-.35,.35-.16,.63-.28,.77-.33,.22-.09,.47,.02,.56,.25,.05,.14,.03,.28-.04,.39-.05,.07-.11,.13-.2,.16-.75,.29-1.77,.81-2.39,1.3-.31,.24-.52,.48-.56,.68-.01,.04-.03,.13,.11,.26,.92,.92,3.84,.7,4.89,.53,.22-.03,.42,.1,.48,.31,.06,.21-.05,.43-.26,.51-1.28,.51-2.66,1.8-2.84,2.66-.06,.28,.03,.41,.11,.5,.63,.63,3.41,.81,5.01,.77,.08,0,.16,.02,.23,.06-.48,.08-.81,.09-.81,.09,0,0-.15,.27-.43,.71-1.01-.03-2.52-.13-3.59-.47-.43-.14-.79-.32-1.02-.55-.33-.33-.45-.77-.35-1.28,.16-.78,.86-1.63,1.7-2.3-1.31,.03-2.94-.12-3.75-.93-.38-.38-.39-.78-.34-1.05,.04-.19,.13-.37,.26-.55,.13-.18,.31-.36,.5-.52-.3,0-.58,0-.81-.06-.11-.03-.21-.06-.3-.1-.28-.13-.49-.35-.62-.63-.3,.38-.7,.64-1.2,.76-.77,.19-1.68,.04-2.55-.25-1.56-.51-2.97-1.43-3.06-1.49-.2-.13-.25-.4-.12-.6Z"/>
                <path class="cls-3" d="M366.45,95.14c.14,.05,.3,.02,.42-.09,.18-.16,.19-.43,.03-.61-.85-.95-1.22-2-1.09-3.1,.33-2.83,3.72-5.23,3.75-5.25,.19-.14,.24-.4,.11-.6-.14-.19-.4-.24-.6-.11-.15,.11-3.74,2.65-4.11,5.86-.16,1.36,.28,2.63,1.31,3.77,.05,.06,.12,.1,.19,.12Z"/>
              </g>
              <path class="cls-25" d="M313.56,71.64v-.02s0-.02,0,0v.05s.04,.12,.04,.12l.06,.29,.13,.63c.04,.21,.09,.43,.14,.66,.05,.22,.1,.44,.15,.67,.21,.9,.43,1.83,.68,2.74,.5,1.84,1.04,3.69,1.66,5.51,.63,1.82,1.27,3.63,2.01,5.39,.37,.88,.74,1.76,1.14,2.63,.38,.88,.8,1.73,1.21,2.58,.85,1.69,1.74,3.36,2.7,4.97,.23,.41,.48,.8,.73,1.2,.25,.39,.48,.8,.74,1.19,.52,.77,1.02,1.56,1.56,2.3,1.05,1.53,2.21,2.96,3.36,4.38,1.2,1.38,2.41,2.74,3.71,4.01,.32,.32,.64,.64,.97,.95l1.01,.91,.5,.46,.13,.11-.06-.06-.09-.07c-.12-.1-.24-.18-.37-.27-.54-.38-1.2-.67-1.81-.84-.15-.04-.28-.08-.43-.11-.07-.01-.14-.02-.22-.03l-.18-.03c-.12-.02-.25-.02-.36-.03-.09-.01-.19-.01-.28-.01-.04,0-.1,0-.13,0-.03,0-.07,0-.1,0-.06,0-.14,.02-.19,.02-.04,0-.08,0-.12,.01l-.05,.02s-.02,0-.02,0c-.14,.05,.14,0,.56-.18,.43-.18,1-.48,1.62-.85,.62-.37,1.29-.81,1.98-1.3,1.38-.98,2.83-2.15,4.29-3.39,1.45-1.26,2.91-2.59,4.36-3.98,1.46-1.39,2.91-2.83,4.34-4.3,1.44-1.47,2.87-2.97,4.28-4.5,.71-.76,1.42-1.52,2.11-2.29l2.03-2.22,15.67,11.75-.52,.79-.5,.73-.99,1.44c-.67,.95-1.34,1.88-2.02,2.81-1.38,1.85-2.79,3.68-4.25,5.48-1.48,1.8-2.98,3.58-4.57,5.34-.8,.88-1.6,1.75-2.44,2.62-.84,.87-1.69,1.72-2.58,2.58-1.78,1.71-3.65,3.39-5.77,5.04-1.06,.82-2.18,1.64-3.41,2.44-1.23,.8-2.57,1.58-4.13,2.32-1.57,.73-3.35,1.45-5.64,1.93l-.43,.09c-.15,.03-.31,.05-.46,.07-.31,.05-.62,.09-.93,.13-.32,.04-.67,.06-1.01,.08l-.51,.03c-.17,0-.36,0-.54,0-.37,0-.74-.01-1.1-.03-.39-.03-.78-.07-1.17-.12-.2-.03-.39-.05-.59-.08-.21-.04-.41-.08-.62-.12-.41-.09-.81-.17-1.23-.29-1.67-.47-3.32-1.25-4.77-2.22-.35-.24-.69-.5-1.03-.76l-.25-.2-.23-.19-.18-.16-.72-.64-1.43-1.28c-.47-.44-.92-.89-1.38-1.33-1.85-1.77-3.55-3.68-5.21-5.61-1.61-1.96-3.17-3.98-4.58-6.07-1.45-2.07-2.74-4.23-3.98-6.4l-.9-1.65c-.3-.55-.57-1.11-.85-1.66-.28-.56-.56-1.11-.82-1.68l-.79-1.69c-2.05-4.52-3.69-9.17-4.98-13.91-.63-2.37-1.19-4.76-1.63-7.2-.22-1.22-.42-2.44-.59-3.7-.04-.31-.08-.63-.12-.95-.04-.32-.07-.64-.11-.96-.03-.32-.07-.66-.1-.99l-.09-1.2,20.69-1.9Z"/>
              <path class="cls-26" d="M362.77,98.33c-.06,.74-.72,1.29-1.46,1.23-.74-.06-1.29-.72-1.23-1.46,.06-.74,.72-1.29,1.46-1.23,.74,.06,1.29,.72,1.23,1.46Z"/>
              <g>
                <path class="cls-26" d="M334.67,121.55c-.26,0-.49-.17-.56-.44-1.08-4.34-.95-9.78-.94-10.01,0-.32,.27-.57,.59-.56,.32,0,.57,.27,.56,.59,0,.05-.14,5.51,.91,9.69,.08,.31-.11,.62-.42,.7-.05,.01-.09,.02-.14,.02Z"/>
                <path class="cls-26" d="M330.98,117.37c-.09,0-.17-.02-.26-.06-.29-.14-.4-.49-.26-.77,.08-.16,1.95-3.89,2.83-5,.2-.25,.56-.29,.81-.09,.25,.2,.29,.56,.09,.81-.81,1.02-2.68,4.76-2.7,4.8-.1,.2-.3,.32-.52,.32Z"/>
              </g>
              <g>
                <path class="cls-26" d="M366.92,109.55c-.15,0-.3-.06-.41-.18-4.83-4.98-15.74-12.86-15.85-12.94-.26-.19-.32-.55-.13-.81,.19-.26,.55-.32,.81-.13,.11,.08,11.1,8.01,16.01,13.07,.22,.23,.22,.59-.01,.82-.11,.11-.26,.16-.4,.16Z"/>
                <path class="cls-26" d="M362.25,105.29c-.13,0-.26-.04-.37-.13-.24-.2-.28-.57-.07-.81l5.83-7c.2-.24,.57-.28,.81-.07,.24,.2,.28,.57,.07,.81l-5.83,7c-.11,.14-.28,.21-.44,.21Z"/>
              </g>
            </g>
            <g>
              <g>
                <path class="cls-25" d="M320.44,165.53c-13.11,12.23-44.1,18.74-67.99,7.11-2.62-7.16-5.5-32.72-6.27-40.36-.16-1.52-.28-3.04-.38-4.57-.48-7.33-.38-14.71-.03-22.43,.02-.42,.04-.84,.06-1.26,.31-6.35,.78-12.94,1.22-19.94,.87-13.85,5.49-22.38,13.52-23.66,3.73-.59,6.69-1.64,8.86-2.67,.27-.13,.52-.25,.76-.37,2.59-1.32,4.06-2.51,4.06-2.51h17.91c1.54,2.25,3.49,3.66,5.58,4.66,.23,.11,.47,.22,.7,.32,6.36,2.74,13.77,2.2,15.3,9.87,.96,4.81-2.73,14.72-2.34,34.79,.03,1.47,.08,3,.15,4.58,.07,1.48,.16,3.02,.28,4.6,.11,1.47,.24,3,.4,4.56,.14,1.37,.29,2.78,.47,4.22,.18,1.48,.38,2.99,.6,4.55,1.19,8.34,4.39,27.79,7.14,38.52Z"/>
                <path class="cls-26" d="M259.05,169.71s.09,0,.14-.02c.29-.08,.46-.37,.38-.66-9.95-36.47-7.94-73.55-7.92-73.92,.02-.3-.21-.55-.51-.57-.3-.02-.55,.21-.57,.51-.02,.37-2.04,37.62,7.95,74.26,.07,.24,.28,.4,.52,.4Z"/>
                <path class="cls-26" d="M313.03,122.34c-.29,0-.54-.22-.57-.51-1.19-10.55-1.2-31.54-1.2-31.75,0-.32,.26-.58,.58-.58s.58,.26,.58,.58c0,.21,.01,21.13,1.2,31.62,.04,.32-.19,.6-.51,.64-.02,0-.04,0-.07,0Z"/>
                <path class="cls-26" d="M288.49,162.07c-.06,.74-.72,1.29-1.46,1.23s-1.29-.72-1.23-1.46c.06-.74,.72-1.29,1.46-1.23,.74,.06,1.29,.72,1.23,1.46Z"/>
                <path class="cls-26" d="M288.71,168.61c-.06,.74-.72,1.29-1.46,1.23-.74-.06-1.29-.72-1.23-1.46,.06-.74,.72-1.29,1.46-1.23,.74,.06,1.29,.72,1.23,1.46Z"/>
                <path class="cls-26" d="M300.08,98.7c-1.8,0-3.28-.66-4.39-1.96-3.52-4.08-2.2-13.17-2.14-13.56,.04-.28,.29-.49,.57-.49h11.93c.29,0,.53,.21,.57,.49,.06,.38,1.38,9.48-2.14,13.56-1.12,1.3-2.6,1.96-4.4,1.96Zm-5.45-14.85c-.22,1.92-.8,8.97,1.94,12.14,.9,1.05,2.05,1.55,3.52,1.55s2.62-.51,3.52-1.55c2.74-3.18,2.15-10.22,1.93-12.14h-10.91Z"/>
              </g>
              <g>
                <path class="cls-26" d="M272.64,10.7c3.34-2.16,13.85-3.25,13.85-3.25,0,0,1.73-4.54,3.68-5.84,4.43-2.95,4.98,3.03,4.98,3.03,0,0,4.33-6.06,8.22-4.33,3.9,1.73-1.08,7.36-1.08,7.36,0,0,5.84-1.08,5.19,3.9-.65,4.98-6.28,7.14-6.28,7.14,0,0,1.73,2.81,.87,7.36-.87,4.54-2.81,4.76-2.81,4.76l-24.24,2.16s-4.98,0-6.28-6.28c-1.3-6.28,3.03-8.87,3.03-8.87,0,0-2.81-4.76,.87-7.14Z"/>
                <g>
                  <path class="cls-22" d="M292.43,51.81v4.55c-.53,.43-1.07,.8-1.61,1.13-7.91,4.75-16.43-1.13-16.43-1.13v-15.79l15.89,9.89,2.15,1.34Z"/>
                  <path class="cls-25" d="M274.43,51.74s-5.32,.89-6.78,6.98c5.18,5.42,9.77,10.12,17.18,11.5v-10.89s-6.55-1.64-10.4-7.58Z"/>
                  <path class="cls-25" d="M292.6,53.31s4.75,1.02,6.6,7.1c-4.79,5.83-7.35,8.02-14.37,9.8v-10.89s3.91-.06,7.77-6.01Z"/>
                  <g>
                    <g>
                      <polygon class="cls-26" points="295.28 137.97 292.2 145.41 292.2 145.41 290.82 148.75 286.91 158.19 285.02 154.54 284.35 153.25 282.84 150.33 282.17 149.04 280.65 146.12 279.99 144.83 278.47 141.9 278.47 141.9 277.8 140.61 276.38 137.87 276.41 137.57 276.63 135.39 277.14 130.45 277.36 128.27 277.86 123.33 278.08 121.15 278.59 116.21 278.81 114.03 279.31 109.09 279.53 106.91 280.04 101.97 280.26 99.79 280.76 94.85 280.98 92.66 281.49 87.73 281.71 85.55 282.21 80.6 282.43 78.43 282.95 73.32 286.73 73.17 286.84 74.02 287.07 75.75 287.58 79.67 287.81 81.4 288.33 85.32 288.56 87.05 289.07 90.97 289.3 92.7 289.82 96.62 290.05 98.35 290.57 102.27 290.79 104 291.31 107.92 291.54 109.65 292.06 113.57 292.29 115.3 292.8 119.22 293.03 120.95 293.55 124.87 293.78 126.6 294.29 130.52 294.52 132.25 295.04 136.17 295.27 137.9 295.28 137.97"/>
                      <g>
                        <polygon class="cls-26" points="287.07 75.75 282.21 80.6 282.43 78.43 286.84 74.02 287.07 75.75"/>
                        <polygon class="cls-26" points="287.81 81.4 281.49 87.73 281.71 85.55 287.58 79.67 287.81 81.4"/>
                        <polygon class="cls-26" points="288.56 87.05 280.76 94.85 280.98 92.66 288.33 85.32 288.56 87.05"/>
                        <polygon class="cls-26" points="289.3 92.7 280.04 101.97 280.26 99.79 289.07 90.97 289.3 92.7"/>
                        <polygon class="cls-26" points="290.05 98.35 279.31 109.09 279.53 106.91 289.82 96.62 290.05 98.35"/>
                        <polygon class="cls-26" points="290.79 104 278.59 116.21 278.81 114.03 290.57 102.27 290.79 104"/>
                        <polygon class="cls-26" points="291.54 109.65 277.86 123.33 278.08 121.15 291.31 107.92 291.54 109.65"/>
                        <polygon class="cls-26" points="292.29 115.3 277.14 130.45 277.36 128.27 292.06 113.57 292.29 115.3"/>
                        <polygon class="cls-26" points="293.03 120.95 276.41 137.57 276.63 135.39 292.8 119.22 293.03 120.95"/>
                        <polygon class="cls-26" points="293.78 126.6 278.47 141.9 277.8 140.61 293.55 124.87 293.78 126.6"/>
                        <polygon class="cls-26" points="294.52 132.25 280.65 146.12 279.99 144.83 294.29 130.52 294.52 132.25"/>
                        <polygon class="cls-26" points="295.27 137.9 282.84 150.33 282.17 149.04 295.04 136.17 295.27 137.9"/>
                        <polygon class="cls-26" points="292.2 145.41 290.82 148.75 285.02 154.54 284.35 153.25 292.2 145.41"/>
                      </g>
                      <polygon class="cls-26" points="282.95 73.32 284.83 76.11 286.73 73.17 287.06 75.68 284.86 77.92 282.75 75.26 282.95 73.32"/>
                    </g>
                    <polygon class="cls-26" points="279.79 68.63 284.83 76.11 289.66 68.63 284.83 62.38 279.79 68.63"/>
                    <g>
                      <path class="cls-26" d="M276.87,73.75c-.13,0-.26-.04-.36-.13-4.98-3.97-9.23-14.25-9.41-14.68-.12-.3,.02-.63,.32-.75,.3-.12,.63,.02,.75,.32,.04,.1,4.04,9.77,8.6,13.83l7.58-10.3c.11-.15,.29-.24,.47-.23,.19,0,.36,.09,.47,.24l7.07,10.04c1.08-1.95,3.92-7.13,6.31-11.93,.14-.29,.49-.4,.77-.26,.29,.14,.4,.49,.26,.77-3.01,6.06-6.74,12.72-6.78,12.78-.1,.17-.28,.28-.47,.29-.2,.01-.39-.08-.5-.24l-7.14-10.14-7.47,10.15c-.09,.13-.23,.21-.39,.23-.03,0-.05,0-.08,0Z"/>
                      <path class="cls-26" d="M284.82,62.95c-.32,0-.58-.26-.58-.58v-2.58c0-.32,.26-.58,.58-.58s.58,.26,.58,.58v2.58c0,.32-.26,.58-.58,.58Z"/>
                    </g>
                  </g>
                </g>
                <g>
                  <path class="cls-22" d="M300.88,42.35s0,9.42-9.78,9.39c-9.73-.02-16.36-7.65-16.71-8.01,0,0,0-.02,0-.02l-.11-1.98-.55-10.27-.3-5.49s-1.24-9.88,8.15-11.69c6.86-1.32,13.29-.17,16.54,3.41,.1,.11,.21,.23,.3,.35,1.02,1.26,1.68,2.79,1.85,4.6l.28,9.39,.02,.47,.08,2.42,.09,2.89,.14,4.52Z"/>
                  <path class="cls-13" d="M291.1,51.74c-9.73-.02-16.36-7.66-16.71-8.01"/>
                </g>
                <path class="cls-26" d="M288.33,24.89s-3.13,2.33-5,.85c-1.86-1.49,2.48-3.11,3.91-2.99,1.43,.12,2.02,1.61,1.09,2.14Z"/>
                <path class="cls-26" d="M300,24.09s-3.13-2.33-5-.85c-1.86,1.49,2.48,3.11,3.91,2.99,1.43-.12,2.02-1.61,1.09-2.14Z"/>
                <path class="cls-11" d="M286.63,36.86s5.97,1.2,8.99,.93c0,0-1.12,4.45-5.57,3.32-3.46-.87-3.42-4.26-3.42-4.26Z"/>
                <path class="cls-26" d="M298.43,18.06c-1.54-.54-2.65-.04-5.04,1.01-3.46,1.52-7.33,.15-10.75-1.6-3.42-1.75-5.47,.68-4.3,2.28,1.16,1.6,1.04,2.89-.25,4.92-1.29,2.03,2.44,2.98,.38,4.58-.87,.67-.82,1.68-.47,2.61,.38,1.02-.51,2.07-1.59,1.87h0c-1.11-.28-2.68-2.26-2.68-2.26l-.3-5.49s-1.24-9.88,8.15-11.68c6.86-1.32,13.3-.18,16.54,3.4,.1,.12,.21,.23,.3,.36Z"/>
                <g class="cls-7">
                  <path class="cls-22" d="M287.91,34.05c0,1.6-1.41,2.9-3.15,2.9s-3.15-1.3-3.15-2.9,1.41-2.9,3.15-2.9,3.15,1.3,3.15,2.9Z"/>
                </g>
                <g class="cls-7">
                  <path class="cls-22" d="M300.75,37.82s-.06,0-.09,0c-1.75,0-3.16-1.3-3.16-2.9s1.36-2.85,3.06-2.89l.02,.47,.08,2.42,.09,2.89Z"/>
                </g>
                <path class="cls-26" d="M289.17,29.96c0,.94-.43,1.7-.95,1.7s-.95-.76-.95-1.7,.43-1.7,.95-1.7,.95,.76,.95,1.7Z"/>
                <path class="cls-26" d="M298.63,29.96c0,.94-.43,1.7-.95,1.7s-.95-.76-.95-1.7,.43-1.7,.95-1.7,.95,.76,.95,1.7Z"/>
                <path class="cls-22" d="M275.74,33.37s-3.76-5.06-6.52-1.08c-2.27,3.27,2.02,11.8,6.52,8.88v-7.8Z"/>
                <path class="cls-26" d="M275.22,39.65c-.19,0-.36-.15-.38-.35-.42-3.83-3.62-5.16-3.76-5.21-.2-.08-.29-.31-.21-.5,.08-.2,.3-.3,.5-.22,.15,.06,3.77,1.55,4.24,5.85,.02,.21-.13,.4-.34,.43-.01,0-.03,0-.04,0Z"/>
                <path class="cls-26" d="M271.61,37.3c-.11,0-.22-.05-.3-.14-.13-.17-.11-.41,.06-.54,.15-.13,1.54-1.22,2.71-.92,.21,.05,.33,.26,.28,.47-.05,.21-.26,.33-.47,.28-.67-.17-1.69,.5-2.03,.77-.07,.06-.16,.09-.24,.09Z"/>
                <path class="cls-16" d="M292.43,27.21s-.11,6.06,1.83,7.19h-3.14"/>
              </g>
            </g>
          </g>
          <g>
            <path class="cls-25" d="M254.8,63.45l-8.91,7.74c-1.42,1.33-2.85,2.65-4.29,3.96-1.43,1.32-2.86,2.63-4.29,3.92-1.44,1.29-2.86,2.57-4.29,3.83-1.43,1.26-2.86,2.49-4.28,3.67-1.41,1.18-2.83,2.33-4.15,3.31-.66,.49-1.29,.93-1.81,1.27l-.34,.22-.14,.09s-.03,.03-.05,.04c-.05,.05-.09,.09-.11,.12-.05,.06-.04,.11-.1,.15-.06,.05-.19,.08-.44,.07-.5-.03-1.43-.35-2.5-.97-1.07-.62-2.25-1.51-3.42-2.56-1.17-1.05-2.37-2.24-3.52-3.53-2.31-2.59-4.54-5.5-6.64-8.56-2.12-3.05-3.61-5.41-5.52-8.66-3.09,3.73-7.83,5.58-12.98,4.96,1.45,3.95,3.13,7.78,5.02,11.59,1.91,3.79,4.03,7.55,6.61,11.23,1.29,1.84,2.68,3.67,4.29,5.46,1.61,1.79,3.4,3.55,5.58,5.22,1.1,.83,2.29,1.63,3.64,2.36,1.35,.73,2.84,1.38,4.51,1.88,1.67,.49,3.51,.82,5.45,.86,1.93,.04,3.92-.21,5.77-.74,.93-.26,1.82-.58,2.67-.95l.62-.28,.52-.25c.18-.09,.33-.17,.49-.25,.16-.08,.33-.17,.47-.25,1.2-.65,2.24-1.28,3.23-1.91,1.96-1.25,3.73-2.49,5.45-3.74,1.72-1.26,3.37-2.53,5-3.8,1.63-1.28,3.23-2.56,4.8-3.86,1.57-1.3,3.14-2.61,4.68-3.93,1.54-1.33,3.06-2.66,4.58-4,1.51-1.35,3.01-2.7,4.5-4.07l2.22-2.07,1.1-1.05c.37-.35,.73-.69,1.12-1.08l-14.52-15.45Z"/>
            <g>
              <path class="cls-26" d="M246.3,100c.11,0,.21-.03,.31-.1,5.88-4.12,16.34-12.79,16.45-12.88,.23-.19,.26-.53,.07-.76-.19-.23-.53-.26-.76-.07-.1,.09-10.53,8.74-16.38,12.83-.24,.17-.3,.51-.13,.75,.1,.15,.27,.23,.44,.23Z"/>
              <path class="cls-26" d="M258.47,90.62s.05,0,.08,0l4.14-.6c.29-.04,.5-.32,.45-.61-.04-.29-.31-.5-.61-.45l-4.14,.6c-.29,.04-.5,.32-.45,.61,.04,.27,.27,.46,.53,.46Z"/>
            </g>
            <path class="cls-26" d="M189.89,79.21c-.21-.11-.34-.36-.28-.6,.06-.3,.36-.48,.65-.42,7.8,1.7,11.69-5.74,11.73-5.82,.14-.27,.47-.38,.74-.24,0,0,0,0,0,0,.27,.14,.37,.47,.24,.73-.04,.08-4.32,8.27-12.94,6.39-.05-.01-.09-.03-.14-.05Z"/>
            <path class="cls-26" d="M193.9,79.35c-.11-.06-.2-.15-.25-.27l-2.57-6c-.12-.28,0-.6,.29-.72,.28-.12,.6,.01,.72,.29l2.57,6c.12,.28,0,.6-.29,.72-.16,.07-.33,.06-.47-.02Z"/>
            <path class="cls-26" d="M198.5,73.58c-.24,.47-.81,.65-1.28,.4-.47-.24-.65-.81-.4-1.28s.81-.65,1.28-.4c.46,.24,.65,.81,.4,1.28Z"/>
            <g>
              <path class="cls-26" d="M223.27,98.51c-.15-.08-.26-.22-.29-.4,0-.03-.58-3.45-1.6-5.45-.14-.27-.03-.6,.24-.74,.27-.14,.6-.03,.74,.24,1.09,2.15,1.68,5.62,1.7,5.77,.05,.3-.15,.58-.45,.63-.12,.02-.24,0-.34-.05Z"/>
              <path class="cls-26" d="M219.71,97.28s-.07-.04-.1-.07c-.23-.19-.26-.54-.07-.77,.02-.02,1.54-1.85,1.9-3.64,.06-.3,.35-.49,.65-.43,.3,.06,.49,.35,.43,.65-.42,2.06-2.07,4.04-2.14,4.13-.17,.2-.45,.25-.67,.13Z"/>
            </g>
          </g>
        </g>
        <g>
          <path class="cls-10" d="M32.25,254.69H677.25c5.13,0,9.28-3.91,9.28-8.73H22.97c0,4.82,4.16,8.73,9.28,8.73Z"/>
          <polygon class="cls-10" points="638.36 254.69 639.31 258.39 652.49 309.81 658.04 331.46 669.98 378.03 681.08 378.03 663.59 309.81 658.04 288.15 650.67 259.39 649.46 254.69 638.36 254.69"/>
          <polygon class="cls-10" points="635 378.03 646.1 378.03 658.04 331.46 663.59 309.81 675.95 261.62 677.72 254.69 666.62 254.69 665.09 260.66 658.04 288.15 652.49 309.81 635 378.03"/>
          <polygon class="cls-10" points="32.94 254.69 33.9 258.42 47.07 309.81 52.63 331.47 64.56 378.03 75.67 378.03 58.18 309.81 52.63 288.16 45.26 259.41 44.05 254.69 32.94 254.69"/>
          <polygon class="cls-10" points="29.59 378.03 40.69 378.03 52.63 331.47 58.18 309.81 70.53 261.64 72.31 254.69 61.2 254.69 59.67 260.68 52.63 288.16 47.07 309.81 29.59 378.03"/>
          <g>
            <path class="cls-10" d="M15.61,239.09v3.38c0,1.95,1.99,3.52,4.44,3.52H689.09c2.45,0,4.44-1.58,4.44-3.52v-3.38c0-1.94-1.99-3.52-4.44-3.52H20.06c-2.45,0-4.44,1.58-4.44,3.52Z"/>
            <rect class="cls-10" x="15.61" y="240.78" width="677.91" height="1.55"/>
            <g class="cls-1">
              <path class="cls-10" d="M32.25,254.69H677.25c5.13,0,9.28-3.91,9.28-8.73H22.97c0,4.82,4.16,8.73,9.28,8.73Z"/>
            </g>
            <rect class="cls-5" x="15.61" y="240.78" width="677.91" height="1.55"/>
            <line class="cls-17" x1="35.7" y1="265.44" x2="62.76" y2="371"/>
            <line class="cls-17" x1="673.93" y1="265.44" x2="646.87" y2="371"/>
          </g>
          <line class="cls-17" x1="686.53" y1="245.96" x2="22.97" y2="245.96"/>
        </g>
        <line class="cls-14" x1=".5" y1="378.74" x2="708.64" y2="378.74"/>
        <g>
          <g>
            <g>
              <path class="cls-20" d="M504.03,98.06v16.23c0,2.15-1.74,3.89-3.89,3.89h-29.47l-8.9,3.19c-.91,.33-1.79-.57-1.44-1.47l3.37-8.69v-13.15c0-2.15,1.74-3.89,3.89-3.89h32.55c2.15,0,3.89,1.74,3.89,3.89Z"/>
              <path class="cls-14" d="M467.59,94.18h32.55c2.15,0,3.89,1.74,3.89,3.89"/>
            </g>
            <g>
              <path class="cls-11" d="M478.43,106.64c0,1.55-1.26,2.81-2.81,2.81s-2.81-1.26-2.81-2.81,1.26-2.81,2.81-2.81,2.81,1.26,2.81,2.81Z"/>
              <path class="cls-11" d="M487.33,106.64c0,1.55-1.26,2.81-2.81,2.81s-2.81-1.26-2.81-2.81,1.26-2.81,2.81-2.81,2.81,1.26,2.81,2.81Z"/>
              <path class="cls-11" d="M496.23,106.64c0,1.55-1.26,2.81-2.81,2.81s-2.81-1.26-2.81-2.81,1.26-2.81,2.81-2.81,2.81,1.26,2.81,2.81Z"/>
            </g>
          </g>
          <g>
            <g>
              <rect class="cls-25" x="628.45" y="104.87" width="44.29" height="30.59" transform="translate(-.17 .94) rotate(-.08)"/>
              <polyline class="cls-14" points="628.43 104.9 628.47 135.49 672.76 135.43"/>
              <g class="cls-27">
                <g>
                  <polyline class="cls-14" points="628.43 104.9 650.6 124.56 672.71 104.83"/>
                  <line class="cls-14" x1="628.47" y1="135.49" x2="645.64" y2="120.16"/>
                  <line class="cls-14" x1="673.47" y1="136.15" x2="655.41" y2="120.02"/>
                </g>
              </g>
              <path class="cls-20" d="M670.83,112.46h0c-4.29,0-7.77-3.48-7.77-7.77h0c0-4.29,3.48-7.77,7.77-7.77h0c4.29,0,7.77,3.48,7.77,7.77h0c0,4.29-3.48,7.77-7.77,7.77Z"/>
              <g>
                <path class="cls-11" d="M669.99,102.46v1.08c0,.72,0,1.34,.01,1.85l.03,2.27c-.06,.06-.22,.08-.48,.08h-.32s-.06,0-.06,0h-.15s-.15,0-.15,0h-.23c-.25,0-.49,0-.74,0l-.06-.09s-.04-.11-.04-.23,0-.91,.03-2.38v-1c-.39,.27-.78,.47-1.16,.59-.02,0-.03-.01-.03-.03v-.55c0-.64,0-.97,.01-.97,0,0,.05-.02,.11-.06,.06-.03,.13-.07,.21-.1,.08-.03,.13-.05,.15-.07,.02-.01,.04-.02,.06-.03,.63-.3,1.02-.56,1.16-.78l1.13,.02c.23,0,.39,0,.5-.01,0,.01,.01,.08,.01,.2v.21Z"/>
                <path class="cls-11" d="M675.52,106.35c-.27,.74-.81,1.2-1.61,1.4-.25,.06-.51,.09-.8,.09s-.56-.04-.82-.11c-.46-.13-.83-.38-1.1-.72-.27-.35-.44-.76-.53-1.23-.02-.1-.05-.32-.07-.64l-.02-.24c0-1.15,.36-1.98,1.07-2.49,.42-.3,.93-.48,1.55-.54h.05c.85,0,1.48,.26,1.9,.79,.42,.53,.63,1.29,.63,2.3,0,.47-.09,.93-.26,1.39Zm-1.84-3.04c-.05-.07-.11-.13-.18-.16-.07-.04-.16-.06-.26-.06s-.19,.02-.27,.06c-.08,.04-.15,.1-.2,.16-.05,.06-.1,.15-.13,.26-.1,.29-.15,.7-.15,1.23s.01,.83,.04,.97c.06,.31,.13,.53,.23,.66,.1,.13,.23,.2,.41,.2,.28,0,.47-.14,.58-.42,.09-.24,.14-.61,.14-1.1v-.07c0-.15,.01-.33,.01-.53s0-.35,0-.43c0-.08-.01-.17-.03-.27s-.03-.19-.06-.27c-.03-.08-.07-.15-.11-.22Z"/>
              </g>
            </g>
            <g>
              <path class="cls-11" d="M150.97,109.3v40.52c0,2.18,1.77,3.95,3.95,3.95h32.09c2.18,0,3.94-1.77,3.94-3.95v-40.52h-39.98Z"/>
              <g>
                <rect class="cls-10" x="160.55" y="139.46" width="3.89" height="9.39"/>
                <rect class="cls-29" x="166.28" y="132.79" width="3.89" height="16.06"/>
                <rect class="cls-10" x="172.63" y="127.87" width="3.89" height="20.99"/>
                <rect class="cls-25" x="178.85" y="122.09" width="3.89" height="26.76"/>
              </g>
              <g>
                <path class="cls-26" d="M190.96,107.8v5.47h-39.98v-5.47c0-1.09,.88-1.97,1.97-1.97h36.04c1.09,0,1.97,.88,1.97,1.97Z"/>
                <g>
                  <path class="cls-10" d="M181.28,109.19c0,.72-.58,1.3-1.3,1.3s-1.3-.58-1.3-1.3,.58-1.3,1.3-1.3,1.3,.58,1.3,1.3Z"/>
                  <path class="cls-20" d="M185.49,109.19c0,.72-.58,1.3-1.3,1.3s-1.3-.58-1.3-1.3,.58-1.3,1.3-1.3,1.3,.58,1.3,1.3Z"/>
                  <path class="cls-25" d="M189.52,109.19c0,.72-.58,1.3-1.3,1.3s-1.3-.58-1.3-1.3,.58-1.3,1.3-1.3,1.3,.58,1.3,1.3Z"/>
                </g>
              </g>
            </g>
          </g>
        </g>
      </g>
    </g>
  </g>
</svg>