<?xml version="1.0" encoding="UTF-8"?>
<svg id="Layer_2" data-name="Layer 2" xmlns="http://www.w3.org/2000/svg" viewBox="0 0 173.98 243.19">
  <g id="Layer_1-2" data-name="Layer 1">
    <path d="M30.47,89.19c0,3.5,0,7,0,10.5,0,3.93,1.55,7.01,4.88,9.22,16.63,11.05,33.23,22.15,49.86,33.2,3.58,2.38,6.41,2.29,9.91-.2,1.84-1.31,3.65-2.67,5.41-4.08,7.24-5.77,16.71-1.11,19.63,5.72,3,7.01,.98,15.08-5.36,19.74-6.17,4.52-12.53,8.78-18.88,13.05-4.93,3.32-9.78,2.5-14.49-.65-12.1-8.12-24.2-16.25-36.32-24.35-12.78-8.55-25.55-17.12-38.4-25.57C2.14,122.76,.04,118.63,.04,113.28c0-16.33,.08-32.66-.04-48.99-.04-5.68,2.34-9.77,6.95-12.78,14.05-9.14,28.1-18.28,42.16-27.41,10.82-7.03,21.71-13.95,32.44-21.11,6.01-4.01,11.63-3.97,17.65,0,22.87,15.09,45.83,30.06,68.77,45.03,4.08,2.66,6.07,6.31,6.01,11.17-.07,5.61,0,11.23-.02,16.84-.02,5.92-4.88,8.88-10.04,5.86-4.65-2.72-9.06-5.84-13.56-8.82-17.13-11.36-34.25-22.73-51.37-34.09-.67-.44-1.36-.85-2.03-1.29-4.45-2.9-8.81-2.84-13.27,.12-13.36,8.86-26.77,17.65-40.16,26.47-2.74,1.8-5.47,3.62-8.23,5.39-3.23,2.06-4.74,5.07-4.82,8.81-.08,3.57-.02,7.14-.02,10.72Z"/>
    <path d="M143.51,154c0-3.5,0-7,0-10.5,0-3.93-1.55-7.01-4.88-9.22-16.63-11.05-33.23-22.15-49.86-33.2-3.58-2.38-6.41-2.29-9.91,.2-1.84,1.31-3.65,2.67-5.41,4.08-7.24,5.77-16.71,1.11-19.63-5.72-3-7.01-.98-15.08,5.36-19.74,6.17-4.52,12.53-8.78,18.88-13.05,4.93-3.32,9.78-2.5,14.49,.65,12.1,8.12,24.2,16.25,36.32,24.35,12.78,8.55,25.55,17.12,38.4,25.57,4.57,3.01,6.67,7.13,6.67,12.49,0,16.33-.08,32.66,.04,48.99,.04,5.68-2.34,9.77-6.95,12.78-14.05,9.14-28.1,18.28-42.16,27.41-10.82,7.03-21.71,13.95-32.44,21.11-6.01,4.01-11.63,3.97-17.65,0-22.87-15.09-45.83-30.06-68.77-45.03C1.94,192.5-.06,188.86,0,183.99c.07-5.61,0-11.23,.02-16.84,.02-5.92,4.88-8.88,10.04-5.86,4.65,2.72,9.06,5.84,13.56,8.82,17.13,11.36,34.25,22.73,51.37,34.09,.67,.44,1.36,.85,2.03,1.29,4.45,2.9,8.81,2.84,13.27-.12,13.36-8.86,26.77-17.65,40.16-26.47,2.74-1.8,5.47-3.62,8.23-5.39,3.23-2.06,4.74-5.07,4.82-8.81,.08-3.57,.02-7.14,.02-10.72Z"/>
  </g>
</svg>